<?xml version="1.0" encoding="UTF-8"?> <svg xmlns="http://www.w3.org/2000/svg" xmlns:xlink="http://www.w3.org/1999/xlink" width="113.725" height="40" viewBox="0 0 113.725 40"><defs><style>.a{fill:none;}.b{clip-path:url(#a);}.c{fill:#008f36;}.d{fill:#7a7d7d;}.e{fill:#0d99bf;}</style><clipPath id="a"><rect class="a" width="113.725" height="40"></rect></clipPath></defs><g class="b"><path class="c" d="M2.667,22.435l11.848,7.651L38.059,11.348A20.01,20.01,0,1,0,13.641,38.959Z"></path><path class="c" d="M36.526,54.136a20,20,0,0,0,23.4-19.708,19.913,19.913,0,0,0-1.655-7.968Z" transform="translate(-19.907 -14.428)"></path><path class="d" d="M99.8,17.193l-.659-.4a3,3,0,0,1-.883-.745,1.412,1.412,0,0,1-.263-.843,1.491,1.491,0,0,1,.5-1.162,1.859,1.859,0,0,1,1.291-.446,2.439,2.439,0,0,1,1.392.426v.984a2.009,2.009,0,0,0-1.41-.629,1.167,1.167,0,0,0-.7.2.6.6,0,0,0-.273.5.779.779,0,0,0,.2.51,2.551,2.551,0,0,0,.647.5l.663.392a1.941,1.941,0,0,1,1.109,1.685,1.546,1.546,0,0,1-.488,1.184,1.787,1.787,0,0,1-1.269.455,2.667,2.667,0,0,1-1.636-.551v-1.1a2.043,2.043,0,0,0,1.627.89,1.022,1.022,0,0,0,.679-.227.71.71,0,0,0,.272-.568q0-.554-.8-1.049" transform="translate(-53.407 -7.414)"></path><path class="d" d="M107.606,13.767h3.436v.772h-2.568v1.848h2.482v.776h-2.482v1.881h2.65v.772h-3.518Z" transform="translate(-58.645 -7.507)"></path><path class="d" d="M117.369,13.767h.868v5.268h2.729v.789h-3.6Z" transform="translate(-63.967 -7.507)"></path><path class="d" d="M129.6,13.576a3.258,3.258,0,0,1,2.339.889,2.945,2.945,0,0,1,.935,2.229,2.9,2.9,0,0,1-.943,2.218,3.355,3.355,0,0,1-2.378.878,3.163,3.163,0,0,1-2.283-.878,2.927,2.927,0,0,1-.913-2.2,2.992,2.992,0,0,1,.919-2.246,3.206,3.206,0,0,1,2.324-.889m.035.824a2.354,2.354,0,0,0-1.71.651,2.215,2.215,0,0,0-.67,1.661,2.173,2.173,0,0,0,.672,1.63,2.495,2.495,0,0,0,3.374-.013,2.217,2.217,0,0,0,.678-1.652,2.165,2.165,0,0,0-.678-1.62,2.3,2.3,0,0,0-1.667-.657" transform="translate(-68.862 -7.403)"></path><path class="d" d="M148.464,19.815V13.767h2.043a4.32,4.32,0,0,1,1.957.371,2.8,2.8,0,0,1,1.146,1.091,3.034,3.034,0,0,1,.425,1.57A2.987,2.987,0,0,1,152.1,19.59a3.041,3.041,0,0,1-.629.18,8.525,8.525,0,0,1-1.093.045Zm1.952-5.277h-1.085v4.5h1.111a4.428,4.428,0,0,0,1.011-.089,2.377,2.377,0,0,0,.6-.225,2.075,2.075,0,0,0,.44-.336,2.245,2.245,0,0,0,.642-1.644,2.08,2.08,0,0,0-.66-1.591,2.112,2.112,0,0,0-.557-.377,2.354,2.354,0,0,0-.6-.2,6.065,6.065,0,0,0-.907-.048" transform="translate(-80.913 -7.507)"></path><path class="d" d="M163.092,13.767h3.436v.772H163.96v1.848h2.482v.776H163.96v1.881h2.65v.772h-3.518Z" transform="translate(-88.886 -7.507)"></path><path class="d" d="M103.6,41.033v.954a4.536,4.536,0,0,1-2.2.52,3.4,3.4,0,0,1-1.723-.407,3,3,0,0,1-1.119-1.123,3.053,3.053,0,0,1-.412-1.547A2.954,2.954,0,0,1,99.09,37.2a3.24,3.24,0,0,1,2.328-.9,5.46,5.46,0,0,1,2.121.5v.932a4.177,4.177,0,0,0-2.078-.607,2.4,2.4,0,0,0-1.729.657,2.319,2.319,0,0,0-.01,3.284,2.414,2.414,0,0,0,1.731.642,3.928,3.928,0,0,0,2.152-.677" transform="translate(-53.49 -19.795)"></path><path class="d" d="M115.139,36.283a3.258,3.258,0,0,1,2.339.889,2.945,2.945,0,0,1,.935,2.229,2.9,2.9,0,0,1-.943,2.218,3.355,3.355,0,0,1-2.378.878,3.163,3.163,0,0,1-2.283-.878,2.927,2.927,0,0,1-.913-2.2,2.992,2.992,0,0,1,.919-2.246,3.206,3.206,0,0,1,2.324-.889m.035.824a2.354,2.354,0,0,0-1.71.651,2.215,2.215,0,0,0-.67,1.661,2.173,2.173,0,0,0,.672,1.63,2.495,2.495,0,0,0,3.374-.013,2.217,2.217,0,0,0,.678-1.652,2.165,2.165,0,0,0-.678-1.62,2.3,2.3,0,0,0-1.667-.657" transform="translate(-60.984 -19.784)"></path><path class="d" d="M133.411,36.474h.824v6.057h-.746l-4.052-4.665v4.665h-.816V36.474h.7l4.087,4.7Z" transform="translate(-70.099 -19.888)"></path><path class="d" d="M143.829,36.474h3.232v.772H144.7v1.691h2.365v.772H144.7v2.822h-.868Z" transform="translate(-78.387 -19.888)"></path><path class="d" d="M155.626,36.283a3.258,3.258,0,0,1,2.339.889A2.945,2.945,0,0,1,158.9,39.4a2.9,2.9,0,0,1-.943,2.218,3.354,3.354,0,0,1-2.378.878,3.163,3.163,0,0,1-2.283-.878,2.927,2.927,0,0,1-.913-2.2,2.992,2.992,0,0,1,.919-2.246,3.206,3.206,0,0,1,2.324-.889m.035.824a2.354,2.354,0,0,0-1.71.651,2.215,2.215,0,0,0-.67,1.661,2.173,2.173,0,0,0,.672,1.63,2.495,2.495,0,0,0,3.374-.013,2.217,2.217,0,0,0,.678-1.652,2.165,2.165,0,0,0-.678-1.62,2.3,2.3,0,0,0-1.667-.657" transform="translate(-83.049 -19.784)"></path><path class="d" d="M169.108,42.531V36.474h1.518a2.19,2.19,0,0,1,1.46.456,1.526,1.526,0,0,1,.541,1.231,1.516,1.516,0,0,1-1.024,1.491,2.67,2.67,0,0,1,.568.52,10.548,10.548,0,0,1,.781,1.149q.317.516.508.776l.321.433h-1.032l-.264-.4c-.009-.014-.026-.039-.052-.074l-.169-.238-.268-.443-.29-.473a4.767,4.767,0,0,0-.492-.594,1.889,1.889,0,0,0-.4-.318,1.369,1.369,0,0,0-.606-.1h-.226v2.636Zm1.128-5.32h-.26v1.912h.329a2.444,2.444,0,0,0,.9-.113.845.845,0,0,0,.381-.34.985.985,0,0,0,.137-.518.925.925,0,0,0-.152-.518.811.811,0,0,0-.427-.327,3.077,3.077,0,0,0-.913-.1" transform="translate(-92.165 -19.889)"></path><path class="d" d="M185.646,36.474h.811v6.057h-.872V37.818l-1.863,2.341h-.161l-1.885-2.341v4.713h-.867V36.474h.821l2.014,2.488Z" transform="translate(-98.541 -19.888)"></path><rect class="d" width="0.868" height="6.057" transform="translate(89.23 16.585)"></rect><path class="d" d="M200.994,42.522V36.474h2.043a4.319,4.319,0,0,1,1.957.371,2.8,2.8,0,0,1,1.146,1.091,3.034,3.034,0,0,1,.424,1.57,2.987,2.987,0,0,1-1.931,2.792,3.041,3.041,0,0,1-.629.18,8.525,8.525,0,0,1-1.093.045Zm1.952-5.277h-1.085v4.5h1.111a4.427,4.427,0,0,0,1.011-.089,2.376,2.376,0,0,0,.6-.225,2.076,2.076,0,0,0,.44-.336,2.245,2.245,0,0,0,.642-1.644,2.08,2.08,0,0,0-.66-1.591,2.112,2.112,0,0,0-.557-.377,2.354,2.354,0,0,0-.6-.2,6.065,6.065,0,0,0-.907-.048" transform="translate(-109.543 -19.889)"></path><path class="d" d="M215.679,36.4h.61l2.718,6.092h-.888l-.808-1.8h-2.586l-.757,1.8h-.892Zm1.275,3.525-.978-2.194-.907,2.194Z" transform="translate(-116.127 -19.847)"></path><path class="d" d="M227.588,42.522V36.474h2.043a4.319,4.319,0,0,1,1.957.371,2.8,2.8,0,0,1,1.146,1.091,3.034,3.034,0,0,1,.425,1.57,2.987,2.987,0,0,1-1.931,2.792,3.04,3.04,0,0,1-.629.18,8.525,8.525,0,0,1-1.093.045Zm1.952-5.277h-1.085v4.5h1.111a4.427,4.427,0,0,0,1.011-.089,2.376,2.376,0,0,0,.6-.225,2.075,2.075,0,0,0,.44-.336,2.245,2.245,0,0,0,.642-1.644,2.08,2.08,0,0,0-.66-1.591,2.112,2.112,0,0,0-.557-.377,2.354,2.354,0,0,0-.6-.2,6.065,6.065,0,0,0-.907-.048" transform="translate(-124.036 -19.889)"></path><path class="d" d="M242.216,36.474h3.436v.772h-2.568v1.848h2.482v.776h-2.482V41.75h2.65v.772h-3.518Z" transform="translate(-132.009 -19.888)"></path><path class="e" d="M103.187,64.129v1.11H98.718V59.181h4.408v1.11h-2.9v1.27h2.764v1.11h-2.764v1.456Z" transform="translate(-53.802 -32.27)"></path><path class="e" d="M117.437,65.411l.1.126-1.18,1.006a4.814,4.814,0,0,1-1.007-.186,6.731,6.731,0,0,1-.994-.382,8.2,8.2,0,0,1-.945-.538,3.932,3.932,0,0,0-.824-.4,3.143,3.143,0,0,1-.759-.4,3.177,3.177,0,0,1-.664-.633,2.976,2.976,0,0,1-.473-.832,2.875,2.875,0,0,1-.182-1.01,2.954,2.954,0,0,1,.987-2.2A3.481,3.481,0,0,1,114,59.011a3.416,3.416,0,0,1,2.5.94,2.919,2.919,0,0,1,.349,3.949,3.175,3.175,0,0,1-1.647,1.144,3.268,3.268,0,0,0,1.649.453,1.843,1.843,0,0,0,.59-.086m-3.458-5.138a1.908,1.908,0,0,0-1.39.514,1.987,1.987,0,0,0,0,2.7,2.146,2.146,0,0,0,2.775.006,1.978,1.978,0,0,0-.006-2.71,1.936,1.936,0,0,0-1.378-.505" transform="translate(-60.225 -32.177)"></path><path class="e" d="M130.931,59.182l2.692,6.057H132l-.5-1.2h-2.714l-.453,1.2h-1.6l2.448-6.057Zm.127,3.8-.982-2.355-.89,2.355Z" transform="translate(-69.07 -32.271)"></path><path class="e" d="M146.749,59.182l-2.8,6.136h-.656l-2.936-6.136H142l1.6,3.461,1.518-3.461Z" transform="translate(-76.495 -32.27)"></path><path class="e" d="M160.4,64.129v1.11H155.93V59.181h4.408v1.11h-2.9v1.27H160.2v1.11H157.44v1.456Z" transform="translate(-84.983 -32.27)"></path><path class="e" d="M173.244,59.182v1.11h-2.2v4.947h-1.51V60.291h-2.195v-1.11Z" transform="translate(-91.203 -32.27)"></path></g></svg> 