<?xml version="1.0" encoding="UTF-8"?> <svg xmlns="http://www.w3.org/2000/svg" xmlns:xlink="http://www.w3.org/1999/xlink" xmlns:xodm="http://www.corel.com/coreldraw/odm/2003" xml:space="preserve" width="1985px" height="348px" version="1.1" style="shape-rendering:geometricPrecision; text-rendering:geometricPrecision; image-rendering:optimizeQuality; fill-rule:evenodd; clip-rule:evenodd" viewBox="0 0 2928.35 513.12"> <defs> <style type="text/css"> .fil0 {fill:#3C3C3C} .fil11 {fill:#FEFEFE} .fil7 {fill:#FFED00} .fil2 {fill:#00633A;fill-rule:nonzero} .fil12 {fill:#1A325A;fill-rule:nonzero} .fil9 {fill:#1B2721;fill-rule:nonzero} .fil8 {fill:#2D211C;fill-rule:nonzero} .fil1 {fill:#3C3C3C;fill-rule:nonzero} .fil4 {fill:#6F9F2D;fill-rule:nonzero} .fil3 {fill:#D12023;fill-rule:nonzero} .fil5 {fill:#F59D0E;fill-rule:nonzero} .fil10 {fill:#FEFEFE;fill-rule:nonzero} .fil6 {fill:#FFED00;fill-rule:nonzero} </style> </defs> <g id="Layer_x0020_1"> <metadata id="CorelCorpID_0Corel-Layer"></metadata> <g id="_2610434923600"> <path class="fil0" d="M2314.34 340.69c19.97,0 10.12,4.46 24.53,-31.94 2.22,-5.63 3.63,-10.93 5.86,-16.56 1.21,-3.04 1.96,-5.58 2.97,-8.64 0.82,-2.49 2.43,-6.17 3,-8.61l-13.93 0c-0.59,7.15 -15.3,41.14 -15.47,48.73l-1.54 0c-0.14,-6.12 -13.23,-39.1 -15.47,-48.73l-13.93 0 17.02 50.28c2.29,5.75 3.97,15.47 6.96,15.47l0 0z"></path> <path class="fil0" d="M2542.9 228.24c0,5.4 6.71,6.64 0.74,15.45 -1.56,2.32 -2.31,1.86 -3.06,4.66 3,0.8 2.88,2.18 5.41,3.87 14.49,-9.7 16.99,-31.71 4.64,-31.71 -4.45,0 -7.73,3.08 -7.73,7.73l0 0z"></path> <path class="fil1" d="M2100.2 230.28c0,0.95 -0.03,1.72 -0.12,2.37 -0.09,0.63 -0.21,1.14 -0.37,1.52 -0.18,0.4 -0.39,0.68 -0.64,0.87 -0.24,0.18 -0.54,0.26 -0.83,0.26l-32.64 0c-1.1,0 -2.03,-0.32 -2.78,-0.94 -0.76,-0.64 -1.13,-1.66 -1.13,-3.09l0 -54.8c0,-1.43 0.37,-2.45 1.13,-3.09 0.75,-0.62 1.68,-0.94 2.78,-0.94l32.49 0c0.29,0 0.56,0.08 0.81,0.24 0.22,0.17 0.42,0.45 0.6,0.85 0.15,0.41 0.29,0.93 0.37,1.56 0.09,0.65 0.12,1.44 0.12,2.42 0,0.91 -0.03,1.67 -0.12,2.32 -0.08,0.63 -0.2,1.14 -0.37,1.53 -0.18,0.39 -0.38,0.68 -0.6,0.86 -0.25,0.18 -0.52,0.26 -0.81,0.26l-23.22 0 0 15.33 19.56 0c0.31,0 0.59,0.08 0.83,0.26 0.26,0.18 0.46,0.44 0.63,0.82 0.17,0.37 0.29,0.87 0.38,1.51 0.08,0.63 0.12,1.4 0.12,2.29 0,0.95 -0.04,1.73 -0.12,2.34 -0.09,0.61 -0.21,1.11 -0.38,1.48 -0.17,0.37 -0.37,0.65 -0.63,0.79 -0.24,0.17 -0.52,0.25 -0.83,0.25l-19.56 0 0 17.71 23.37 0c0.31,0 0.59,0.08 0.83,0.26 0.25,0.18 0.46,0.47 0.64,0.86 0.16,0.39 0.28,0.89 0.37,1.53 0.09,0.64 0.12,1.42 0.12,2.37l0 0z"></path> <path class="fil1" d="M2165.99 202.94c0,5.77 -0.77,10.69 -2.33,14.8 -1.57,4.1 -3.8,7.43 -6.71,10.03 -2.92,2.59 -6.48,4.5 -10.65,5.71 -4.17,1.21 -9.15,1.82 -14.91,1.82l-15.54 0c-1.11,0 -2.04,-0.32 -2.79,-0.94 -0.76,-0.64 -1.14,-1.66 -1.14,-3.09l0 -54.8c0,-1.43 0.38,-2.45 1.14,-3.09 0.75,-0.62 1.68,-0.94 2.79,-0.94l16.69 0c5.8,0 10.72,0.66 14.76,1.97 4.05,1.31 7.45,3.25 10.21,5.82 2.76,2.58 4.87,5.77 6.32,9.55 1.44,3.8 2.16,8.17 2.16,13.16l0 0zm-13.7 0.45c0,-2.99 -0.36,-5.74 -1.08,-8.31 -0.72,-2.55 -1.87,-4.76 -3.46,-6.63 -1.6,-1.87 -3.64,-3.35 -6.13,-4.39 -2.51,-1.05 -5.77,-1.58 -9.84,-1.58l-6.67 0 0 42.67 6.88 0c3.62,0 6.68,-0.44 9.15,-1.35 2.47,-0.9 4.54,-2.28 6.21,-4.1 1.65,-1.82 2.88,-4.09 3.71,-6.81 0.82,-2.72 1.23,-5.89 1.23,-9.5l0 0z"></path> <path class="fil1" d="M2229.87 211.88c0,3.85 -0.58,7.29 -1.76,10.32 -1.17,3.06 -2.88,5.62 -5.17,7.73 -2.28,2.1 -5.1,3.72 -8.44,4.81 -3.37,1.1 -7.21,1.66 -11.57,1.66 -4.09,0 -7.76,-0.5 -11,-1.48 -3.26,-1 -6.01,-2.49 -8.26,-4.49 -2.25,-2.01 -3.96,-4.51 -5.15,-7.52 -1.18,-2.99 -1.78,-6.49 -1.78,-10.5l0 -38.23c0,-0.32 0.1,-0.61 0.31,-0.88 0.19,-0.25 0.54,-0.46 1.06,-0.63 0.51,-0.16 1.2,-0.28 2.04,-0.38 0.82,-0.1 1.9,-0.15 3.21,-0.15 1.25,0 2.32,0.05 3.14,0.15 0.84,0.1 1.51,0.22 2.01,0.38 0.5,0.17 0.86,0.38 1.08,0.63 0.23,0.27 0.33,0.56 0.33,0.88l0 37.13c0,2.51 0.33,4.66 0.96,6.5 0.63,1.82 1.54,3.35 2.75,4.54 1.18,1.2 2.6,2.11 4.27,2.71 1.66,0.59 3.52,0.89 5.56,0.89 2.08,0 3.95,-0.31 5.58,-0.93 1.65,-0.61 3.04,-1.5 4.19,-2.69 1.13,-1.19 2.02,-2.64 2.64,-4.37 0.62,-1.74 0.92,-3.71 0.92,-5.92l0 -37.86c0,-0.32 0.11,-0.61 0.32,-0.88 0.18,-0.25 0.55,-0.46 1.04,-0.63 0.5,-0.16 1.19,-0.28 2.05,-0.38 0.85,-0.1 1.92,-0.15 3.19,-0.15 1.27,0 2.31,0.05 3.14,0.15 0.82,0.1 1.49,0.22 1.99,0.38 0.5,0.17 0.86,0.38 1.05,0.63 0.2,0.27 0.3,0.56 0.3,0.88l0 37.7 0 0z"></path> <path class="fil1" d="M2289.07 225.8c0,0.81 -0.01,1.51 -0.07,2.07 -0.05,0.57 -0.13,1.06 -0.23,1.46 -0.09,0.42 -0.23,0.76 -0.4,1.06 -0.17,0.28 -0.43,0.62 -0.8,0.98 -0.37,0.36 -1.09,0.85 -2.14,1.43 -1.06,0.56 -2.35,1.12 -3.87,1.65 -1.53,0.52 -3.27,0.97 -5.22,1.31 -1.96,0.35 -4.09,0.53 -6.37,0.53 -4.44,0 -8.46,-0.66 -12.05,-1.99 -3.59,-1.32 -6.64,-3.31 -9.15,-5.95 -2.52,-2.63 -4.44,-5.91 -5.78,-9.88 -1.34,-3.94 -2.01,-8.54 -2.01,-13.77 0,-5.34 0.74,-10.08 2.21,-14.23 1.48,-4.14 3.54,-7.62 6.18,-10.44 2.64,-2.82 5.82,-4.94 9.53,-6.4 3.69,-1.45 7.77,-2.18 12.24,-2.18 1.8,0 3.53,0.15 5.22,0.44 1.68,0.29 3.23,0.66 4.64,1.15 1.43,0.46 2.7,1.01 3.85,1.62 1.14,0.63 1.94,1.16 2.39,1.59 0.44,0.45 0.76,0.81 0.93,1.1 0.16,0.3 0.3,0.66 0.39,1.11 0.1,0.46 0.19,0.99 0.24,1.6 0.05,0.62 0.07,1.37 0.07,2.27 0,0.97 -0.04,1.8 -0.1,2.47 -0.08,0.69 -0.19,1.23 -0.35,1.65 -0.17,0.41 -0.37,0.73 -0.6,0.91 -0.24,0.2 -0.52,0.3 -0.81,0.3 -0.49,0 -1.13,-0.28 -1.9,-0.85 -0.77,-0.56 -1.77,-1.19 -2.99,-1.89 -1.22,-0.7 -2.67,-1.32 -4.37,-1.89 -1.68,-0.56 -3.69,-0.84 -6.05,-0.84 -2.57,0 -4.87,0.51 -6.9,1.52 -2.02,1.03 -3.74,2.47 -5.16,4.36 -1.43,1.91 -2.51,4.2 -3.25,6.88 -0.73,2.67 -1.1,5.71 -1.1,9.07 0,3.68 0.4,6.88 1.19,9.58 0.79,2.69 1.9,4.92 3.36,6.66 1.44,1.75 3.21,3.05 5.27,3.9 2.06,0.86 4.38,1.29 6.96,1.29 2.33,0 4.35,-0.26 6.07,-0.79 1.7,-0.53 3.15,-1.13 4.37,-1.76 1.24,-0.65 2.24,-1.23 3.03,-1.74 0.79,-0.52 1.39,-0.78 1.83,-0.78 0.33,0 0.6,0.07 0.8,0.2 0.2,0.13 0.37,0.38 0.51,0.78 0.12,0.38 0.22,0.93 0.29,1.62 0.07,0.72 0.1,1.64 0.1,2.82l0 0z"></path> <path class="fil1" d="M2351.87 230.54c0.4,1.16 0.66,2.09 0.76,2.77 0.1,0.68 -0.03,1.19 -0.39,1.54 -0.38,0.34 -1.03,0.55 -1.98,0.63 -0.92,0.08 -2.23,0.12 -3.86,0.12 -1.72,0 -3.05,-0.02 -4,-0.07 -0.96,-0.05 -1.68,-0.15 -2.2,-0.3 -0.5,-0.15 -0.84,-0.35 -1.04,-0.61 -0.2,-0.25 -0.38,-0.6 -0.5,-1.01l-4.27 -12.63 -24.55 0 -4.1 12.28c-0.14,0.46 -0.31,0.85 -0.54,1.15 -0.2,0.31 -0.56,0.54 -1.04,0.72 -0.48,0.19 -1.16,0.3 -2.06,0.37 -0.89,0.06 -2.06,0.1 -3.5,0.1 -1.55,0 -2.74,-0.05 -3.62,-0.15 -0.88,-0.1 -1.48,-0.33 -1.8,-0.7 -0.35,-0.38 -0.47,-0.91 -0.37,-1.59 0.11,-0.68 0.37,-1.57 0.76,-2.72l20.05 -55.78c0.19,-0.55 0.42,-0.99 0.7,-1.33 0.26,-0.35 0.69,-0.59 1.28,-0.78 0.6,-0.18 1.4,-0.29 2.45,-0.34 1.03,-0.05 2.4,-0.07 4.12,-0.07 1.97,0 3.55,0.02 4.71,0.07 1.19,0.05 2.1,0.16 2.75,0.34 0.66,0.19 1.12,0.45 1.41,0.8 0.28,0.37 0.53,0.85 0.72,1.46l20.11 55.73 0 0zm-29.86 -46.15l-0.05 0 -9.06 26.74 18.26 0 -9.15 -26.74 0 0z"></path> <polygon class="fil1" points="2131.99,338.23 2131.99,274.94 2144.18,274.94 2144.18,338.23 "></polygon> <path class="fil1" d="M2199.67 338.23l-18.56 -31.97c-2.72,-4.78 -4.97,-9.47 -6.84,-13.6 0.37,5.44 0.56,15.38 0.56,22.97l0 22.6 -11.81 0 0 -63.29 15.84 0 17.63 30.19c2.91,4.88 5.43,10.13 7.78,14.91 -0.47,-6.38 -0.66,-17.62 -0.66,-25.41l0 -19.69 11.82 0 0 63.29 -15.76 0 0 0z"></path> <path class="fil1" d="M2253.65 339.26c-19.31,0 -28.78,-12.28 -28.78,-31.88 0,-20.9 13.97,-33.47 30.94,-33.47 16.88,0 28.78,10.13 28.78,31.79 0,20.91 -13.78,33.56 -30.94,33.56zm1.03 -54.38l0 0c-8.71,0 -16.78,6.94 -16.78,21.19 0,13.41 5.25,22.13 16.6,22.13 8.25,0 17.06,-6.38 17.06,-21.57 0,-14.06 -6,-21.75 -16.88,-21.75l0 0z"></path> <path class="fil1" d="M2394.28 338.23l-4.4 -12.93 -23.91 0 -4.4 12.93 -12.28 0 22.12 -63.29 13.78 0 22.6 63.29 -13.51 0zm-13.78 -40.6l0 0c-1.12,-3.09 -1.96,-6 -2.62,-8.72l-0.09 0c-0.75,2.72 -1.5,5.63 -2.54,8.72l-6.28 18 17.82 0 -6.29 -18z"></path> <path class="fil1" d="M2445.6 339.54c-22.13,0 -29.25,-14.62 -29.25,-30.38 0,-20.06 10.5,-34.22 31.68,-34.22 4.51,0 9.38,0.66 13.51,1.88l-1.69 11.16c-3.85,-1.41 -8.16,-2.16 -12.47,-2.16 -11.81,0 -17.62,8.91 -17.62,21.28 0,13.69 5.71,21.38 18.46,21.38 3.85,0 8.72,-1.03 12.01,-2.62l1.87 10.78c-4.69,1.78 -10.59,2.9 -16.5,2.9l0 0zm-0.75 21.19l0 0 -9 0c4.5,-5.44 5.44,-9.47 0.94,-15.1l9.93 -3.09c4.88,6.66 3.38,12.75 -1.87,18.19z"></path> <path class="fil1" d="M2388.73 237.16c-22.13,0 -29.26,-14.63 -29.26,-30.38 0,-20.06 10.51,-34.22 31.69,-34.22 4.5,0 9.38,0.66 13.5,1.88l-1.68 11.15c-3.85,-1.4 -8.16,-2.16 -12.47,-2.16 -11.81,0 -17.63,8.91 -17.63,21.29 0,13.69 5.72,21.38 18.47,21.38 3.84,0 8.72,-1.04 12,-2.63l1.88 10.78c-4.69,1.78 -10.6,2.91 -16.5,2.91l0 0zm108.7 -0.28c-19.31,0 -28.78,-12.28 -28.78,-31.87 0,-20.92 13.97,-33.48 30.94,-33.48 16.88,0 28.78,10.13 28.78,31.78 0,20.91 -13.78,33.57 -30.94,33.57zm1.04 -54.38c-8.72,0 -16.78,6.93 -16.78,21.19 0,13.4 5.25,22.12 16.59,22.12 8.25,0 17.06,-6.37 17.06,-21.56 0,-14.06 -6,-21.75 -16.87,-21.75l0 0zm-43.32 53.34l-4.4 -12.93 -23.91 0 -4.41 12.93 -12.28 0 22.12 -63.28 13.78 0 22.6 63.28 -13.5 0zm-10.78 -68.25c-6.47,0 -8.34,-4.41 -12,-4.41 -2.25,0 -3.94,1.32 -5.44,4.04l-5.9 -4.13c2.8,-4.97 6.74,-7.69 11.71,-7.69 6.47,0 8.25,4.41 12.01,4.41 2.24,0 3.84,-1.31 5.43,-3.94l5.91 4.04c-2.82,4.96 -6.75,7.68 -11.72,7.68zm-3 27.66c-1.13,-3.09 -1.97,-6 -2.63,-8.72l-0.09 0c-0.75,2.72 -1.5,5.63 -2.53,8.72l-6.28 18 17.81 0 -6.28 -18zm-53.39 63.09l-9.01 0c4.51,-5.43 5.45,-9.46 0.94,-15.09l9.94 -3.09c4.88,6.66 3.38,12.75 -1.87,18.18z"></path> <path class="fil1" d="M2512.02 338.23l-4.4 -12.93 -23.91 0 -4.41 12.93 -12.28 0 22.13 -63.29 13.78 0 22.6 63.29 -13.51 0zm-10.78 -68.25l0 0c-6.47,0 -8.34,-4.41 -12,-4.41 -2.25,0 -3.94,1.31 -5.44,4.03l-5.9 -4.12c2.81,-4.97 6.74,-7.69 11.72,-7.69 6.46,0 8.25,4.4 12,4.4 2.25,0 3.84,-1.31 5.43,-3.93l5.91 4.03c-2.81,4.97 -6.75,7.69 -11.72,7.69zm-3 27.65l0 0c-1.12,-3.09 -1.97,-6 -2.62,-8.72l-0.1 0c-0.75,2.72 -1.5,5.63 -2.53,8.72l-6.28 18 17.82 0 -6.29 -18z"></path> <path class="fil1" d="M2554.31 339.26c-19.32,0 -28.78,-12.28 -28.78,-31.88 0,-20.9 13.97,-33.47 30.94,-33.47 16.87,0 28.78,10.13 28.78,31.79 0,20.91 -13.79,33.56 -30.94,33.56zm1.03 -54.38l0 0c-8.72,0 -16.78,6.94 -16.78,21.19 0,13.41 5.25,22.13 16.59,22.13 8.26,0 17.06,-6.38 17.06,-21.57 0,-14.06 -6,-21.75 -16.87,-21.75l0 0z"></path> <polygon class="fil1" points="2064.2,339.33 2064.2,273.84 2099.81,273.84 2099.81,284.42 2076.81,284.42 2076.81,300.52 2098.64,300.52 2098.64,310.81 2076.81,310.81 2076.81,328.56 2099.81,328.56 2099.81,339.33 "></polygon> <path class="fil1" d="M2622.21 239.6c-23.6,0 -31.2,-15.6 -31.2,-32.4 0,-21.4 11.2,-36.51 33.8,-36.51 4.8,0 10,0.7 14.4,2l-1.8 11.9c-4.1,-1.5 -8.7,-2.29 -13.3,-2.29 -12.6,0 -18.8,9.49 -18.8,22.69 0,14.6 6.1,22.81 19.7,22.81 4.1,0 9.3,-1.1 12.8,-2.8l2 11.5c-5,1.9 -11.3,3.1 -17.6,3.1l0 0z"></path> <polygon class="fil1" points="2648.74,238.8 2648.74,171.29 2661.74,171.29 2661.74,238.8 "></polygon> <path class="fil1" d="M2674.77 238.8l0 -67.51 36.7 0 0 10.9 -23.7 0 0 16.6 22.5 0 0 10.61 -22.5 0 0 18.3 23.7 0 0 11.1 -36.7 0zm31.5 -71.51l0 0 -13.6 -6 -13.5 6 -2.9 -6.2 16.5 -8.7 16.6 8.5 -3.1 6.4 0 0z"></path> <path class="fil1" d="M2762.19 238.8l-19.8 -34.1c-2.91,-5.11 -5.31,-10.1 -7.31,-14.51 0.41,5.8 0.6,16.4 0.6,24.51l0 24.1 -12.6 0 0 -67.51 16.9 0 18.81 32.2c3.1,5.2 5.8,10.81 8.3,15.91 -0.5,-6.8 -0.7,-18.81 -0.7,-27.1l0 -21.01 12.6 0 0 67.51 -16.8 0 0 0z"></path> <path class="fil1" d="M2820.19 239.6c-23.6,0 -31.21,-15.6 -31.21,-32.4 0,-21.4 11.21,-36.51 33.81,-36.51 4.8,0 10,0.7 14.4,2l-1.8 11.9c-4.1,-1.5 -8.7,-2.29 -13.3,-2.29 -12.6,0 -18.8,9.49 -18.8,22.69 0,14.6 6.1,22.81 19.7,22.81 4.1,0 9.3,-1.1 12.8,-2.8l2 11.5c-5,1.9 -11.3,3.1 -17.6,3.1l0 0z"></path> <polygon class="fil1" points="2846.72,238.8 2846.72,171.29 2859.72,171.29 2859.72,238.8 "></polygon> <path class="fil1" d="M2913.95 238.8l-4.7 -13.8 -25.5 0 -4.7 13.8 -13.1 0 23.6 -67.51 14.7 0 24.1 67.51 -14.4 0zm-14.7 -43.3l0 0c-1.2,-3.31 -2.1,-6.41 -2.8,-9.31l-0.1 0c-0.8,2.9 -1.6,6 -2.7,9.31l-6.7 19.2 19 0 -6.7 -19.2z"></path> </g> <path class="fil1" d="M558.02 207.59l0 -10.99c-2.67,-0.66 -5.33,-1.2 -8,-1.6 -2.67,-0.4 -5.14,-0.73 -7.4,-1l-25.49 -37.19c-1.37,-2.13 -2.8,-4.22 -4.37,-6.29 -1.52,-2.07 -3.06,-4.04 -4.53,-5.9 5.47,-0.53 10.57,-1.8 15.3,-3.8 4.73,-2 8.83,-4.6 12.29,-7.8 3.47,-3.19 6.16,-6.96 8.1,-11.29 1.93,-4.33 2.9,-9.23 2.9,-14.7 0,-6.39 -1.13,-11.82 -3.4,-16.29 -2.26,-4.46 -5.43,-8.1 -9.5,-10.89 -4.06,-2.8 -8.89,-4.83 -14.49,-6.1 -5.6,-1.27 -11.73,-1.9 -18.39,-1.9 -8.27,0 -15.6,0.13 -22,0.4 -6.4,0.27 -10.92,0.4 -13.59,0.4l-15.59 0 0 10.6c5.33,1.46 11.13,2.39 17.39,2.79l0 108.16c-6.26,0.4 -12.06,1.33 -17.39,2.8l0 10.59 50.38 0 0 -10.79c-2.27,-0.67 -4.7,-1.2 -7.3,-1.6 -2.6,-0.4 -5.16,-0.73 -7.7,-1l0 -47.18 3.44 0 39.55 60.57 29.79 0 0 0zm-30.19 -98.16c0,7.2 -2.71,13.04 -8.07,17.5 -5.4,4.46 -12.99,6.7 -22.82,6.7 -2.67,0 -5.03,-0.04 -7.06,-0.1 -2,-0.07 -3.57,-0.17 -4.64,-0.31l0 -45.98c1.91,-0.13 3.84,-0.23 5.87,-0.29 2,-0.07 4.23,-0.11 6.66,-0.11 9.8,0 17.26,1.74 22.39,5.21 5.1,3.46 7.67,9.26 7.67,17.38l0 0z"></path> <path class="fil1" d="M654.97 207.59l0 -31.98 -12.79 0c-0.67,3.07 -1.24,6.03 -1.7,8.89 -0.47,2.87 -0.83,5.64 -1.1,8.3l-36.39 0 0 -47.98 28.8 0c0.66,4.93 1.59,9.53 2.79,13.8l11.2 0 0 -40.99 -11.2 0c-0.67,2.14 -1.2,4.33 -1.6,6.6 -0.4,2.27 -0.8,4.66 -1.19,7.2l-28.8 0 0 -44.38 36.19 0c0.27,2.26 0.6,4.86 1,7.79 0.4,2.94 0.93,5.94 1.6,9l12.79 0 0 -31.19 -86.96 0 0 10.6c5.33,1.46 11.13,2.4 17.39,2.79l0 108.16c-6.26,0.4 -12.06,1.33 -17.39,2.8l0 10.59 87.36 0 0 0z"></path> <path class="fil1" d="M772.33 111.44c0,-12.13 -4.11,-21.76 -12.3,-28.89 -8.2,-7.13 -20.16,-10.7 -35.88,-10.7 -3.34,0 -6.77,0.04 -10.3,0.1 -3.53,0.07 -6.9,0.17 -10.1,0.3 -3.2,0.13 -6.13,0.23 -8.79,0.3 -2.67,0.07 -4.8,0.1 -6.4,0.1l-14.79 0 0 10.6c5.33,1.46 11.12,2.39 17.39,2.79l0 108.16c-6.27,0.4 -12.06,1.33 -17.39,2.8l0 10.59 52.77 0 0 -10.59c-5.33,-1.47 -11.12,-2.4 -17.39,-2.8l0 -38.19c1.87,0.27 3.66,0.4 5.39,0.4 1.91,0 3.78,0 5.63,0 7.64,0 14.61,-1.09 20.97,-3.29 6.36,-2.2 11.83,-5.3 16.46,-9.3 4.59,-4 8.2,-8.73 10.83,-14.19 2.59,-5.47 3.9,-11.53 3.9,-18.19l0 0zm-19 1.8c0,8.53 -2.97,15.29 -8.93,20.29 -5.96,4.99 -14.03,7.56 -24.19,7.69 -1.89,0 -3.76,-0.06 -5.63,-0.2 -1.86,-0.13 -3.7,-0.33 -5.43,-0.6l0 -53.18c2,-0.13 4.04,-0.19 6.03,-0.19 2.13,0 4.46,0 7.03,0 10.56,0 18.4,2.26 23.49,6.79 5.1,4.53 7.63,11 7.63,19.4l0 0z"></path> <path class="fil1" d="M913.47 83.45l0 -10.8 -47.78 0 0 10.8c2.52,0.66 5.16,1.2 7.89,1.6 2.74,0.4 5.44,0.73 8.1,0.99l0 71.38c0,13.59 -2.84,23.15 -8.53,28.69 -5.67,5.52 -14.39,8.29 -26.16,8.29 -6.83,0 -12.39,-0.86 -16.72,-2.6 -4.36,-1.73 -7.8,-4.13 -10.34,-7.19 -2.55,-3.07 -4.29,-6.64 -5.22,-10.7 -0.94,-4.07 -1.4,-8.43 -1.4,-13.09l0 -74.78c2.66,-0.26 5.4,-0.59 8.19,-0.99 2.81,-0.4 5.4,-0.94 7.81,-1.6l0 -10.8 -47.79 0 0 10.8c2.14,0.66 4.37,1.2 6.7,1.6 2.32,0.4 4.7,0.73 7.09,0.99l0 76.18c0,5.99 0.67,11.82 2.01,17.49 1.33,5.66 3.82,10.73 7.49,15.19 3.66,4.46 8.8,8.03 15.39,10.7 6.6,2.66 15.17,3.99 25.69,3.99 17.86,0 31.29,-4.43 40.29,-13.29 8.99,-8.86 13.49,-22.23 13.49,-40.08l0 -70.18c2.4,-0.26 4.74,-0.59 7,-0.99 2.27,-0.4 4.53,-0.94 6.8,-1.6zm-38.59 -41.19l-9 -12.39 -28.39 22.19 7.21 10 30.18 -19.8 0 0z"></path> <path class="fil1" d="M1030.82 167.21c0,-3.46 -0.54,-6.9 -1.6,-10.3 -1.07,-3.39 -2.7,-6.49 -4.9,-9.29 -2.2,-2.8 -5.03,-5.2 -8.5,-7.2 -3.46,-2 -7.53,-3.39 -12.19,-4.2l0 -0.4c7.2,-2.26 13.03,-6.29 17.49,-12.09 4.47,-5.8 6.7,-12.23 6.7,-19.29 0,-10.13 -3.6,-18.06 -10.79,-23.79 -7.2,-5.74 -18.2,-8.6 -32.99,-8.6 -8.14,0 -15.66,0.1 -22.6,0.3 -6.93,0.2 -12.79,0.3 -17.59,0.3l-16.99 0 0 10.6c5.33,1.46 11.13,2.39 17.39,2.79l0 108.16c-6.26,0.4 -12.06,1.33 -17.39,2.8l0 10.59 17.39 0c6.53,0 12.89,0.11 19.1,0.31 6.19,0.19 11.29,0.3 15.29,0.3 10.53,0 19.16,-1.37 25.88,-4.1 6.73,-2.74 12.07,-6.17 15.99,-10.3 3.94,-4.13 6.64,-8.59 8.11,-13.4 1.46,-4.79 2.2,-9.19 2.2,-13.19l0 0zm-22 -59.77c0,7.46 -2.86,13.26 -8.56,17.39 -5.73,4.13 -14.22,6.2 -25.52,6.2 -2.26,0 -4.49,0 -6.63,0 -2.03,0 -3.96,-0.07 -5.87,-0.2l0 -43.59c2.83,-0.13 5.83,-0.23 8.97,-0.29 3.16,-0.07 6.37,-0.11 9.59,-0.11 5.37,0 9.87,0.5 13.5,1.5 3.63,1 6.53,2.43 8.69,4.3 2.14,1.87 3.63,4.07 4.53,6.6 0.88,2.53 1.3,5.27 1.3,8.2l0 0zm2.41 60.37c0,7.46 -2.54,13.56 -7.6,18.3 -5.06,4.73 -13.13,7.09 -24.2,7.09 -3.85,0 -7.22,-0.1 -10.08,-0.3 -2.87,-0.2 -5.24,-0.43 -7.11,-0.7l0 -47.18c0.8,0 1.8,-0.03 3,-0.1 1.2,-0.07 2.4,-0.1 3.61,-0.1 1.32,0 2.52,0 3.59,0 1.07,0 1.87,0 2.4,0 5.2,0 10.03,0.37 14.49,1.1 4.47,0.73 8.3,2 11.5,3.8 3.2,1.8 5.73,4.17 7.6,7.09 1.86,2.94 2.8,6.6 2.8,11l0 0z"></path> <path class="fil1" d="M1132.17 207.59l0 -32.98 -12.59 0c-0.67,3.19 -1.26,6.36 -1.8,9.49 -0.53,3.13 -0.93,6.04 -1.2,8.7l-34.59 0 0 -106.56c6.27,-0.39 12.07,-1.33 17.4,-2.79l0 -10.6 -52.78 0 0 10.6c5.33,1.46 11.13,2.4 17.39,2.79l0 108.13c-6.26,0.4 -12.06,1.33 -17.39,2.76l0 10.46 85.56 0 0 0z"></path> <path class="fil1" d="M1193.35 207.59l0 -10.59c-5.33,-1.47 -11.13,-2.4 -17.39,-2.8l0 -108.16c6.26,-0.4 12.06,-1.33 17.39,-2.79l0 -10.6 -52.78 0 0 10.6c5.33,1.46 11.13,2.39 17.4,2.79l0 108.16c-6.27,0.4 -12.07,1.33 -17.4,2.8l0 10.59 52.78 0z"></path> <path class="fil1" d="M1306.5 107.84l0 -32.66c-5.06,-1.16 -10.3,-2.13 -15.69,-2.83 -5.4,-0.73 -10.7,-1.1 -15.89,-1.1 -11.6,0 -21.56,1.8 -29.89,5.4 -8.33,3.6 -15.24,8.63 -20.7,15.09 -5.46,6.47 -9.49,14.13 -12.09,23 -2.6,8.86 -3.9,18.48 -3.9,28.88 0,20.66 5.23,36.79 15.7,48.38 10.46,11.6 26.02,17.39 46.68,17.39 6.79,0 13.32,-0.63 19.59,-1.89 6.26,-1.27 12.13,-2.9 17.59,-4.9l-1.2 -16.8c-4.26,2.14 -9.23,3.83 -14.89,5.1 -5.67,1.27 -11.16,1.9 -16.5,1.9 -16.39,0 -28.28,-4.59 -35.68,-13.82 -7.4,-9.2 -11.09,-22.03 -11.09,-38.46 0,-7.46 0.83,-14.46 2.49,-20.92 1.67,-6.5 4.24,-12.1 7.7,-16.83 3.46,-4.73 7.86,-8.5 13.19,-11.23 5.34,-2.73 11.67,-4.09 19,-4.09 3.33,0 6.63,0.16 9.9,0.49 3.26,0.34 6.62,0.97 10.09,1.9 0.26,2.67 0.6,5.5 1,8.5 0.4,3 0.93,6.17 1.6,9.5l12.99 0 0 0z"></path> <path class="fil1" d="M1450.44 207.59l0 -10.79c-1.86,-0.4 -3.9,-0.84 -6.1,-1.3 -2.19,-0.47 -4.22,-0.77 -6.09,-0.9l-44.99 -121.95 -21.58 0 -44.79 121.95c-1.86,0.13 -3.89,0.43 -6.09,0.9 -2.2,0.46 -4.23,0.9 -6.1,1.3l0 10.79 46.78 0 0 -10.59c-2.4,-0.66 -4.97,-1.2 -7.69,-1.6 -2.73,-0.4 -5.44,-0.73 -8.11,-1l7.8 -21.59 56.58 0 7.8 21.59c-2.67,0.27 -5.37,0.6 -8.1,1 -2.73,0.4 -5.3,0.94 -7.7,1.6l0 10.59 48.38 0zm-45.18 -49.57l-46.98 0 16.99 -46.79c1.33,-3.46 2.5,-6.89 3.51,-10.29 1,-3.39 1.89,-6.76 2.69,-10.1l0.41 0c0.8,3.47 1.66,6.83 2.59,10.1 0.94,3.26 2.06,6.63 3.4,10.1l17.39 46.98 0 0z"></path> <path class="fil1" d="M546.59 300.04c0,-12.14 -4.02,-21.76 -12.07,-28.89 -8.04,-7.14 -19.78,-10.7 -35.22,-10.7 -3.27,0 -6.64,0.03 -10.1,0.1 -3.47,0.06 -6.77,0.17 -9.91,0.29 -3.14,0.14 -6.02,0.24 -8.63,0.31 -2.62,0.07 -4.71,0.1 -6.28,0.1l-14.52 0 0 10.6c5.23,1.46 10.92,2.39 17.07,2.79l0 108.16c-6.15,0.39 -11.84,1.33 -17.07,2.8l0 10.59 51.8 0 0 -10.59c-5.24,-1.47 -10.92,-2.41 -17.07,-2.8l0 -38.19c1.82,0.27 3.6,0.4 5.3,0.4 1.86,0 3.69,0 5.52,0 7.49,0 14.32,-1.1 20.57,-3.29 6.25,-2.2 11.61,-5.3 16.16,-9.3 4.51,-4 8.04,-8.73 10.62,-14.2 2.55,-5.46 3.83,-11.53 3.83,-18.18zm-18.64 1.79c0,8.54 -2.91,15.29 -8.76,20.29 -5.86,5 -13.77,7.57 -23.74,7.7 -1.87,0 -3.7,-0.06 -5.53,-0.2 -1.83,-0.13 -3.63,-0.34 -5.33,-0.6l0 -53.17c1.96,-0.14 3.95,-0.21 5.91,-0.21 2.1,0 4.39,0 6.91,0 10.37,0 18.05,2.27 23.05,6.8 5,4.53 7.49,11 7.49,19.39l0 0z"></path> <path class="fil1" d="M680.2 327.22c0,-11.06 -1.41,-20.82 -4.21,-29.29 -2.81,-8.46 -6.8,-15.56 -11.97,-21.29 -5.16,-5.73 -11.38,-10.06 -18.64,-12.99 -7.26,-2.93 -15.34,-4.4 -24.23,-4.4 -8.64,0 -16.78,1.59 -24.43,4.8 -7.65,3.19 -14.32,7.83 -20.02,13.89 -5.69,6.06 -10.16,13.49 -13.43,22.29 -3.27,8.8 -4.91,18.8 -4.91,30 0,10.25 1.21,19.55 3.63,27.88 2.42,8.33 6.09,15.46 10.99,21.39 4.91,5.93 11.05,10.53 18.44,13.79 7.39,3.27 16.06,4.91 26,4.91 8.63,0 16.74,-1.61 24.33,-4.81 7.59,-3.19 14.22,-7.83 19.91,-13.89 5.7,-6.06 10.2,-13.5 13.54,-22.29 3.33,-8.8 5,-18.79 5,-29.99l0 0zm-19.22 2.3c0,8.66 -1.18,16.29 -3.54,22.82 -2.35,6.57 -5.49,12.03 -9.42,16.43 -3.91,4.4 -8.4,7.73 -13.43,9.93 -5.04,2.2 -10.24,3.3 -15.6,3.3 -7.06,0 -13.18,-1.31 -18.35,-3.9 -5.16,-2.6 -9.45,-6.33 -12.85,-11.13 -3.4,-4.8 -5.95,-10.52 -7.65,-17.22 -1.7,-6.67 -2.55,-14.03 -2.55,-22.03 0,-8.56 1.14,-16.05 3.43,-22.52 2.29,-6.5 5.33,-11.93 9.13,-16.33 3.79,-4.43 8.2,-7.76 13.24,-10.03 5.03,-2.26 10.3,-3.4 15.8,-3.4 13.34,0 23.64,4.64 30.9,13.93 7.26,9.26 10.89,22.66 10.89,40.15l0 0z"></path> <path class="fil1" d="M800.09 396.19l0 -10.99c-2.62,-0.67 -5.23,-1.21 -7.85,-1.61 -2.62,-0.4 -5.05,-0.72 -7.27,-0.99l-25 -37.19c-1.35,-2.13 -2.75,-4.23 -4.29,-6.29 -1.51,-2.07 -3.01,-4.04 -4.45,-5.9 5.36,-0.54 10.36,-1.8 15.01,-3.8 4.65,-2 8.67,-4.6 12.07,-7.8 3.39,-3.2 6.05,-6.96 7.94,-11.29 1.9,-4.33 2.85,-9.23 2.85,-14.7 0,-6.39 -1.11,-11.82 -3.34,-16.29 -2.22,-4.46 -5.33,-8.09 -9.32,-10.9 -3.99,-2.79 -8.73,-4.82 -14.22,-6.09 -5.49,-1.27 -11.51,-1.9 -18.05,-1.9 -8.12,0 -15.3,0.13 -21.59,0.39 -6.28,0.27 -10.72,0.41 -13.34,0.41l-15.3 0 0 10.6c5.23,1.46 10.92,2.39 17.07,2.79l0 108.16c-6.15,0.39 -11.84,1.33 -17.07,2.8l0 10.59 49.44 0 0 -10.79c-2.22,-0.67 -4.61,-1.2 -7.16,-1.6 -2.55,-0.4 -5.07,-0.73 -7.55,-1l0 -47.18 3.37 0 38.81 60.57 29.24 0 0 0zm-29.64 -98.16c0,7.2 -2.64,13.03 -7.91,17.5 -5.29,4.46 -12.75,6.7 -22.39,6.7 -2.62,0 -4.95,-0.04 -6.94,-0.11 -1.96,-0.06 -3.5,-0.16 -4.54,-0.29l0 -45.98c1.86,-0.14 3.76,-0.24 5.75,-0.31 1.97,-0.07 4.15,-0.1 6.54,-0.1 9.62,0 16.94,1.74 21.98,5.2 5,3.47 7.51,9.26 7.51,17.39l0 0z"></path> <path class="fil1" d="M907.61 261.25l-102.43 0 0 33.38 12.37 0c0.66,-3.86 1.21,-7.29 1.67,-10.29 0.45,-3 0.81,-5.76 1.07,-8.3l27.27 0 0 106.72c-6.15,0.41 -11.83,1.34 -17.07,2.8l0 10.63 51.8 0 0 -10.63c-5.23,-1.46 -10.92,-2.39 -17.06,-2.8l0 -106.72 27.27 0c0.26,2.54 0.62,5.3 1.08,8.3 0.45,3 1.01,6.43 1.66,10.29l12.37 0 0 -33.38 0 0z"></path> <path class="fil1" d="M1046.51 272.04l0 -10.79 -46.89 0 0 10.79c2.49,0.67 5.07,1.21 7.75,1.6 2.69,0.4 5.33,0.74 7.95,1l0 71.37c0,13.6 -2.78,23.16 -8.37,28.69 -5.56,5.53 -14.12,8.3 -25.68,8.3 -6.69,0 -12.15,-0.87 -16.4,-2.6 -4.29,-1.73 -7.66,-4.13 -10.15,-7.2 -2.51,-3.07 -4.21,-6.63 -5.13,-10.69 -0.91,-4.07 -1.37,-8.43 -1.37,-13.1l0 -74.77c2.62,-0.26 5.29,-0.6 8.04,-1 2.75,-0.39 5.3,-0.93 7.65,-1.6l0 -10.79 -46.89 0 0 10.79c2.09,0.67 4.28,1.21 6.57,1.6 2.29,0.4 4.62,0.74 6.97,1l0 76.17c0,6 0.66,11.83 1.96,17.49 1.31,5.67 3.77,10.74 7.36,15.2 3.6,4.46 8.63,8.03 15.11,10.69 6.47,2.67 14.87,4.01 25.21,4.01 17.52,0 30.7,-4.44 39.53,-13.31 8.84,-8.86 13.25,-22.22 13.25,-40.07l0 -70.18c2.35,-0.26 4.64,-0.6 6.86,-1 2.23,-0.39 4.45,-0.93 6.67,-1.6z"></path> <path class="fil1" d="M1182.69 338.22l0 -11 -47.49 0 0 10.79c2.49,0.68 5.17,1.2 8.05,1.6 2.87,0.41 5.82,0.74 8.82,1.01l0 37.58c-3.53,1.07 -7.22,1.93 -11.02,2.6 -3.79,0.67 -7.94,1 -12.39,1 -7.49,0 -14.22,-1.17 -20.27,-3.5 -6.03,-2.33 -11.19,-5.77 -15.54,-10.27 -4.31,-4.53 -7.65,-10.05 -9.94,-16.56 -2.28,-6.52 -3.44,-13.99 -3.44,-22.35 0,-9.06 1.35,-16.93 4.04,-23.66 2.7,-6.7 6.37,-12.33 11.01,-16.86 4.67,-4.53 10.04,-7.86 16.16,-10.06 6.07,-2.2 12.56,-3.3 19.36,-3.3 7.22,0 14.54,1 22.03,3 0.4,5.2 1.19,11.13 2.36,17.79l12.95 0 0 -31.78c-5.88,-1.47 -11.77,-2.63 -17.65,-3.5 -5.93,-0.87 -11.95,-1.3 -18.09,-1.3 -11.02,0 -20.96,1.8 -29.79,5.4 -8.86,3.6 -16.36,8.59 -22.53,14.99 -6.15,6.4 -10.86,14 -14.17,22.79 -3.27,8.8 -4.9,18.4 -4.9,28.79 0,10.39 1.54,19.73 4.61,27.99 3.08,8.26 7.49,15.26 13.24,20.99 5.76,5.73 12.66,10.1 20.7,13.09 8.04,3 17.11,4.5 27.18,4.5 7.33,0 14.78,-0.67 22.37,-2.03 7.59,-1.33 14.71,-3.3 21.38,-5.86l0 -49.48c4.45,-0.54 8.77,-1.34 12.96,-2.4l0 0z"></path> <path class="fil1" d="M1323.17 272.04l0 -10.79 -46.89 0 0 10.79c2.48,0.67 5.06,1.21 7.74,1.6 2.69,0.4 5.34,0.74 7.95,1l0 71.37c0,13.6 -2.78,23.16 -8.37,28.69 -5.56,5.53 -14.12,8.3 -25.68,8.3 -6.69,0 -12.16,-0.87 -16.41,-2.6 -4.28,-1.73 -7.65,-4.13 -10.13,-7.2 -2.52,-3.07 -4.23,-6.63 -5.14,-10.69 -0.91,-4.07 -1.37,-8.43 -1.37,-13.1l0 -74.77c2.62,-0.26 5.29,-0.6 8.04,-1 2.76,-0.39 5.3,-0.93 7.66,-1.6l0 -10.79 -46.9 0 0 10.79c2.09,0.67 4.28,1.21 6.58,1.6 2.28,0.4 4.61,0.74 6.96,1l0 76.17c0,6 0.65,11.83 1.96,17.49 1.31,5.67 3.76,10.74 7.36,15.2 3.6,4.46 8.63,8.03 15.11,10.69 6.47,2.67 14.87,4.01 25.21,4.01 17.52,0 30.71,-4.44 39.53,-13.31 8.83,-8.86 13.25,-22.22 13.25,-40.07l0 -70.18c2.35,-0.26 4.64,-0.6 6.86,-1 2.23,-0.39 4.45,-0.93 6.68,-1.6z"></path> <path class="fil1" d="M1422.05 396.19l0 -31.98 -12.56 0c-0.65,3.06 -1.2,6.03 -1.66,8.89 -0.46,2.87 -0.81,5.64 -1.08,8.3l-35.71 0 0 -47.98 28.25 0c0.66,4.93 1.57,9.53 2.75,13.79l10.98 0 0 -40.98 -10.98 0c-0.66,2.13 -1.18,4.33 -1.57,6.6 -0.39,2.26 -0.78,4.66 -1.18,7.19l-28.25 0 0 -44.38 35.51 0c0.26,2.27 0.6,4.87 0.98,7.8 0.4,2.93 0.92,5.93 1.58,9l12.55 0 0 -31.19 -85.34 0 0 10.6c5.22,1.46 10.92,2.39 17.06,2.79l0 108.16c-6.14,0.39 -11.84,1.33 -17.06,2.8l0 10.59 85.73 0 0 0z"></path> <path class="fil1" d="M1524.28 356.41c0,-7.06 -1.51,-12.79 -4.52,-17.2 -3.04,-4.39 -6.76,-8.02 -11.24,-10.89 -4.46,-2.86 -9.3,-5.26 -14.56,-7.2 -5.23,-1.93 -10.11,-4 -14.55,-6.2 -4.48,-2.19 -8.21,-4.72 -11.24,-7.59 -3.02,-2.86 -4.52,-6.76 -4.52,-11.7 0,-6.39 2.32,-11.49 6.93,-15.29 4.61,-3.8 11.48,-5.7 20.6,-5.7 1.87,0 3.79,0.1 5.86,0.3 2.02,0.2 3.79,0.44 5.23,0.7 0.39,5.33 1.21,11.13 2.38,17.39l12.96 0 0 -30.98c-4.32,-0.8 -8.5,-1.44 -12.56,-1.9 -4.06,-0.46 -8.41,-0.7 -12.98,-0.7 -7.5,0 -14.13,0.93 -19.88,2.8 -5.79,1.87 -10.69,4.49 -14.79,7.89 -4.05,3.4 -7.12,7.43 -9.25,12.1 -2.1,4.66 -3.14,9.8 -3.14,15.39 0,7.2 1.51,13.03 4.51,17.5 3.04,4.46 6.77,8.13 11.24,10.99 4.46,2.87 9.33,5.24 14.56,7.1 5.26,1.86 10.11,3.87 14.56,5.99 4.48,2.14 8.2,4.7 11.25,7.71 3.01,3 4.51,7.02 4.51,12.09 0,4.13 -0.79,7.66 -2.39,10.6 -1.57,2.92 -3.7,5.32 -6.31,7.19 -2.65,1.87 -5.76,3.23 -9.32,4.1 -3.57,0.86 -7.39,1.3 -11.48,1.3 -2.26,0 -4.58,-0.16 -7.03,-0.5 -2.45,-0.34 -4.71,-0.77 -6.83,-1.3 -0.27,-2.67 -0.59,-5.47 -0.99,-8.4 -0.39,-2.93 -0.91,-6.06 -1.57,-9.4l-12.94 0 0 31.99c8.5,2.27 17.91,3.4 28.28,3.4 7.62,0 14.48,-1.03 20.57,-3.1 6.12,-2.06 11.25,-4.93 15.46,-8.59 4.19,-3.67 7.43,-8.07 9.76,-13.2 2.28,-5.13 3.43,-10.69 3.43,-16.69l0 0z"></path> <path class="fil1" d="M1668.48 396.19l0 -10.79c-1.82,-0.4 -3.82,-0.84 -5.98,-1.3 -2.16,-0.47 -4.15,-0.77 -5.98,-0.91l-44.15 -121.94 -21.19 0 -43.95 121.94c-1.83,0.14 -3.83,0.44 -5.98,0.91 -2.16,0.46 -4.16,0.9 -5.98,1.3l0 10.79 45.91 0 0 -10.59c-2.35,-0.67 -4.88,-1.2 -7.55,-1.61 -2.69,-0.4 -5.34,-0.72 -7.96,-0.99l7.66 -21.59 55.52 0 7.65 21.59c-2.61,0.27 -5.26,0.59 -7.94,0.99 -2.68,0.41 -5.2,0.94 -7.55,1.61l0 10.59 47.47 0 0 0zm-44.34 -49.57l-46.1 0 16.67 -46.79c1.31,-3.46 2.45,-6.89 3.44,-10.29 0.98,-3.4 1.86,-6.77 2.64,-10.1l0.4 0c0.79,3.47 1.64,6.83 2.55,10.1 0.91,3.26 2.02,6.63 3.33,10.09l17.07 46.99 0 0z"></path> <polygon class="fil1" points="1868.34,513.12 1868.34,0 1880.05,0 1880.05,513.12 "></polygon> <path class="fil2" d="M142.27 29.87c-94.39,30.41 -142.27,110.62 -142.27,234.35l0 187.65c0,0 15.78,-120.62 142.27,-155.4l0 -266.6z"></path> <path class="fil3" d="M152.79 65.31c0,0 71.83,-27.21 174.07,-33 0,0 -0.32,85.42 -3.06,154.78 -8.62,219.23 -204.51,106.59 -300.5,223.18 19.27,-50.47 84.77,-86.37 129.49,-95.2l0 -249.76 0 0z"></path> <path class="fil2" d="M126.29 378.34c0,0 -104.12,8.46 -113,67.83 -7.01,46.54 113,47.76 113,47.76l0 -115.59 0 0z"></path> <path class="fil4" d="M4.45 203.6c21.56,-50.35 58.07,-101.86 137.82,-134.11l0 -39.62c-77.95,25.13 -124.08,84.28 -137.82,173.73z"></path> <path class="fil5" d="M144.76 295.05l0 1.34c0,0.14 -0.05,0.29 -0.19,0.29l-2.07 0c-0.11,0 -0.23,-0.15 -0.23,-0.29l0 -25.49c0.84,0.07 1.68,0.12 2.49,0.18l0 23.97 0 0zm-3.46 -0.17l0 0c-29.74,-1.89 -55.71,-17.64 -71.57,-40.85 -0.11,-0.18 -0.29,-0.41 -0.41,-0.62 0,0 0,0 0,-0.02 0.76,-0.35 1.51,-0.64 2.3,-0.9 15.34,22.6 40.51,37.94 69.34,40.01l0.34 2.38 0 0zm-76.75 -47.89c-0.46,-0.02 -0.73,-0.22 -0.8,-0.37 -0.12,-0.24 -1.11,-1.98 -1.11,-1.98 -0.03,-0.03 -0.03,-0.08 -0.03,-0.11 0.03,-0.47 0.3,-0.94 0.67,-1.4 -5.52,-10.98 -8.95,-23.21 -9.76,-36.08 0.81,-0.41 1.59,-0.73 2.34,-0.96 0.74,12.64 4.02,24.61 9.3,35.44 1.25,-0.84 2.89,-1.71 4.74,-2.52 -5.08,-10.35 -8.16,-21.85 -8.71,-33.94 1.02,-0.08 1.83,-0.03 2.41,0.04 0.55,11.76 3.6,22.91 8.54,32.96 3.08,-1.24 6.56,-2.4 9.99,-3.37 3.23,-0.93 6.54,-1.79 9.94,-2.55 0.28,0.82 0.61,1.62 0.96,2.41 -3.54,0.79 -6.97,1.66 -10.29,2.64 -0.2,0 -0.37,0.06 -0.55,0.12 -0.06,0 -0.06,0 -0.12,0.03 -0.17,0.09 -0.31,0.11 -0.52,0.17 -0.02,0 -0.06,0 -0.06,0.03 -0.17,0.03 -0.35,0.09 -0.52,0.15 0,0 -0.02,0.03 -0.06,0.03 -0.17,0.03 -0.35,0.09 -0.55,0.11 -0.03,0.06 -0.05,0.06 -0.09,0.06 -0.37,0.12 -0.75,0.24 -1.1,0.38 -0.03,0 -0.06,0 -0.09,0 -0.17,0.09 -0.38,0.12 -0.55,0.2 -0.03,0 -0.03,0 -0.03,0 -0.17,0.06 -0.38,0.12 -0.55,0.21l-0.03 0c-0.2,0.08 -0.38,0.12 -0.58,0.2l0 0c-0.41,0.15 -0.78,0.26 -1.16,0.41l-0.03 0c-0.96,0.37 -1.92,0.69 -2.79,1.11l0 0c-0.81,0.34 -1.54,0.63 -2.26,0.98l0 0c-0.09,0.02 -0.21,0.08 -0.33,0.14l-0.03 0c-0.09,0.04 -0.2,0.09 -0.31,0.15l0 0c-0.12,0.05 -0.23,0.12 -0.35,0.17l0 0c-0.55,0.26 -1.07,0.53 -1.57,0.79l0 0c-0.09,0.06 -0.18,0.11 -0.26,0.17 -0.03,0 -0.03,0 -0.03,0 -0.12,0.03 -0.17,0.08 -0.26,0.15l-0.03 0c-0.09,0.05 -0.17,0.11 -0.26,0.14l0 0c-0.47,0.29 -0.87,0.52 -1.26,0.78l0 0c-0.86,0.62 -1.53,1.2 -1.91,1.75 0,0.06 -0.04,0.09 -0.06,0.12 0,0.02 -0.03,0.05 -0.03,0.09l-0.02 0 0 0c-0.12,0.19 -0.32,0.54 -0.3,0.72 0.03,0.21 0.15,0.33 0.46,0.43l0 0zm4.07 5.91c-0.17,0.17 -0.52,0.77 0.26,1.27 -0.4,-0.11 -0.86,-0.34 -1.1,-0.73 -0.24,-0.4 -1.04,-1.68 -1.04,-1.68 0,-0.03 0,-0.09 0,-0.15 0.06,-0.34 0.23,-0.69 0.55,-1.04 0.03,-0.03 0.03,-0.09 0.06,-0.09 0,-0.03 0.02,-0.03 0.02,-0.03 0.44,-0.49 1.08,-1.04 1.89,-1.59 0.06,-0.03 0.11,-0.09 0.2,-0.15 0.03,0 0.03,0 0.03,0 0.09,-0.06 0.15,-0.12 0.21,-0.12 0,0 0,-0.03 0.03,-0.05 0.15,-0.09 0.31,-0.18 0.47,-0.29l0.02 0c0.09,-0.04 0.15,-0.09 0.23,-0.15l0.03 -0.03c0.09,-0.06 0.15,-0.11 0.24,-0.11l0.02 -0.03c0.18,-0.12 0.36,-0.23 0.56,-0.3 0.03,-0.02 0.03,-0.02 0.03,-0.02 0.09,-0.07 0.17,-0.09 0.26,-0.14 0.03,-0.04 0.03,-0.04 0.03,-0.04 0.37,-0.23 0.81,-0.46 1.28,-0.66l0 0c0.34,-0.15 0.7,-0.33 1.04,-0.53l0 0c0.7,-0.29 1.46,-0.61 2.26,-0.93 0.27,-0.12 0.56,-0.23 0.87,-0.38l0 0c0.16,-0.03 0.3,-0.12 0.44,-0.14 0,-0.03 0.03,-0.03 0.03,-0.03 0.32,-0.12 0.61,-0.23 0.94,-0.35l0.02 0c0.15,-0.06 0.29,-0.12 0.44,-0.15 0.03,-0.03 0.03,-0.03 0.09,-0.03 0.28,-0.11 0.61,-0.23 0.92,-0.35 0,0 0.03,0 0.08,0 0.13,-0.05 0.28,-0.11 0.42,-0.14 0.02,-0.03 0.07,-0.03 0.11,-0.03 0.32,-0.12 0.64,-0.23 0.97,-0.32 0.05,-0.03 0.08,-0.03 0.11,-0.06 0.14,-0.03 0.26,-0.11 0.41,-0.11 0.02,0 0.08,-0.03 0.11,-0.06 0.35,-0.06 0.67,-0.2 1.02,-0.29 0.06,-0.03 0.11,-0.03 0.14,-0.03 0.15,-0.03 0.26,-0.09 0.39,-0.14 0.05,0 0.11,0 0.17,0 0.17,-0.09 0.34,-0.12 0.52,-0.18 3.75,-1.07 7.4,-1.97 11.1,-2.78 0.43,0.81 0.87,1.62 1.33,2.41 -4.09,0.81 -8.01,1.79 -11.82,2.9 -5.9,1.6 -14.36,5.02 -16.39,7.85l0 0zm-15.19 -47.12l0 0c-0.17,0.19 -0.32,0.34 -0.47,0.54 -0.17,0.27 -0.75,0.99 -0.25,1.51 -0.21,-0.14 -0.67,-0.37 -0.67,-0.78l0 -2.56c0,0 0,-0.03 0.02,-0.05 0.15,-0.5 0.5,-0.99 0.99,-1.48 0.06,-0.06 0.12,-0.09 0.21,-0.21l0 0c0.61,-0.55 1.48,-1.16 2.5,-1.74 0.02,-0.04 0.05,-0.04 0.09,-0.06 0.05,-0.06 0.14,-0.08 0.23,-0.15 0.03,-0.02 0.05,-0.02 0.08,-0.06 0.09,-0.02 0.15,-0.05 0.23,-0.11 0,0 0.06,-0.03 0.09,-0.06 0.06,-0.03 0.14,-0.08 0.23,-0.08 0.03,-0.03 0.06,-0.06 0.09,-0.09 0.09,-0.03 0.17,-0.08 0.26,-0.12 0,-0.03 0.05,-0.05 0.09,-0.05 0.09,-0.07 0.18,-0.1 0.26,-0.15 0.04,0 0.06,0 0.09,0 0.23,-0.12 0.46,-0.23 0.71,-0.38 0.03,-0.03 0.1,-0.03 0.1,-0.06 0.12,-0.06 0.2,-0.08 0.29,-0.11 0.06,-0.04 0.09,-0.04 0.12,-0.06 0.09,-0.03 0.17,-0.09 0.26,-0.15 0.06,0 0.11,0 0.11,-0.03 0.12,-0.06 0.21,-0.08 0.3,-0.12 0.05,-0.02 0.08,-0.05 0.1,-0.05 0.13,-0.05 0.25,-0.12 0.36,-0.14 0.03,-0.03 0.06,-0.07 0.06,-0.07 0.29,-0.11 0.58,-0.23 0.87,-0.35 0,-0.02 0.03,-0.02 0.03,-0.02 0.9,-0.35 1.83,-0.73 2.82,-1.07 0.09,-0.06 0.19,-0.09 0.32,-0.15 0.06,-0.03 0.14,-0.03 0.2,-0.06 0.12,-0.06 0.24,-0.09 0.35,-0.14 0.08,-0.04 0.12,-0.04 0.2,-0.04 0.15,-0.08 0.32,-0.14 0.53,-0.19l0 0c0.2,-0.06 0.37,-0.15 0.57,-0.21 0.07,0 0.09,-0.03 0.15,-0.03 0.15,-0.08 0.29,-0.11 0.44,-0.17 0.06,-0.03 0.14,-0.06 0.2,-0.09 0.12,-0.03 0.23,-0.09 0.38,-0.12 0.05,-0.03 0.14,-0.05 0.23,-0.08 0.12,-0.03 0.23,-0.06 0.34,-0.12 0.1,-0.03 0.18,-0.03 0.24,-0.05 0.12,-0.04 0.26,-0.1 0.37,-0.12 0.1,-0.03 0.18,-0.06 0.24,-0.09 0.12,-0.03 0.23,-0.05 0.38,-0.12 0.06,-0.03 0.17,-0.06 0.26,-0.06 0.12,-0.05 0.23,-0.11 0.34,-0.11 0.12,-0.03 0.18,-0.09 0.27,-0.09 0.15,-0.03 0.26,-0.06 0.37,-0.09 0.1,-0.06 0.19,-0.06 0.27,-0.08 0.12,-0.03 0.23,-0.09 0.35,-0.15 0.11,0 0.2,-0.03 0.29,-0.05 0.11,-0.04 0.26,-0.06 0.38,-0.12 0.05,-0.03 0.17,-0.03 0.26,-0.09 0.12,-0.03 0.26,-0.06 0.38,-0.09 0.08,-0.03 0.2,-0.03 0.26,-0.06 0.14,-0.05 0.28,-0.11 0.4,-0.11 0.09,-0.03 0.21,-0.06 0.27,-0.09 0.14,-0.03 0.31,-0.05 0.46,-0.11 0.06,-0.04 0.15,-0.07 0.2,-0.07 0.2,-0.05 0.38,-0.11 0.53,-0.14 0.05,-0.03 0.11,-0.03 0.14,-0.03 0.24,-0.09 0.46,-0.14 0.7,-0.2 0.03,0 0.04,0 0.08,0 0.21,-0.06 0.42,-0.12 0.61,-0.15 0.07,-0.02 0.16,-0.06 0.24,-0.09 0.12,-0.02 0.29,-0.08 0.43,-0.11 0.12,-0.03 0.18,-0.06 0.27,-0.06 0.17,-0.02 0.31,-0.06 0.47,-0.14 0.07,0 0.16,0 0.25,-0.06 0.15,-0.03 0.29,-0.06 0.44,-0.09 0.12,-0.03 0.2,-0.05 0.29,-0.08 0.14,-0.04 0.26,-0.06 0.41,-0.09 0.11,-0.03 0.23,-0.06 0.3,-0.06 0.16,-0.03 0.31,-0.09 0.42,-0.12 0.12,-0.03 0.23,-0.03 0.31,-0.05 0.13,-0.03 0.28,-0.09 0.42,-0.09 0.11,-0.03 0.23,-0.06 0.32,-0.09 0.14,-0.06 0.29,-0.06 0.44,-0.09 0.11,-0.03 0.23,-0.05 0.31,-0.09 0.15,-0.02 0.29,-0.05 0.44,-0.08 0.09,-0.06 0.2,-0.06 0.32,-0.06 0.14,-0.05 0.26,-0.05 0.4,-0.12 0.12,0 0.21,0 0.31,-0.05 0.16,-0.03 0.3,-0.06 0.45,-0.09 0.12,-0.03 0.23,-0.05 0.31,-0.08 0.18,-0.04 0.33,-0.04 0.48,-0.09 0.09,0 0.2,-0.06 0.32,-0.06 0.14,-0.03 0.3,-0.06 0.49,-0.12 0.09,0 0.17,-0.03 0.26,-0.03 0.27,-0.06 0.5,-0.11 0.75,-0.14 1.02,-0.23 2.09,-0.41 3.15,-0.61l0 2.61c-0.94,0.21 -1.86,0.35 -2.77,0.53 -7.7,1.53 -15.92,3.71 -22.33,6.16l0 0c-0.82,0.32 -1.63,0.63 -2.39,0.95l0 0c-2.06,0.87 -3.89,1.77 -5.29,2.7l0 0c-0.78,0.5 -1.45,0.99 -2,1.51l0 0c-0.12,0.12 -0.26,0.24 -0.38,0.36l0 0zm189.47 -1.34c0,0.02 0,0.05 0,0.05l0 2.56c0,0.41 -0.44,0.64 -0.62,0.78 0.48,-0.52 -0.05,-1.24 -0.28,-1.51 -0.12,-0.2 -0.3,-0.35 -0.46,-0.54l0 0c-0.08,-0.07 -0.18,-0.18 -0.26,-0.27 0,-0.03 -0.03,-0.03 -0.07,-0.06l0 0c-0.12,-0.11 -0.26,-0.23 -0.37,-0.34 -0.5,-0.39 -1.08,-0.82 -1.69,-1.2l0 0c-1.42,-0.93 -3.19,-1.8 -5.23,-2.67l0 0c-0.18,-0.09 -0.34,-0.15 -0.52,-0.23 -0.55,-0.23 -1.13,-0.44 -1.72,-0.67 -0.05,-0.02 -0.17,-0.09 -0.17,-0.09 -6.42,-2.44 -14.66,-4.62 -22.34,-6.15 -0.94,-0.15 -1.83,-0.32 -2.73,-0.53l0 -2.62c1.05,0.21 2.06,0.39 3.11,0.62 0.23,0.03 0.5,0.08 0.75,0.14 0.09,0 0.15,0.03 0.24,0.03 0.16,0.06 0.35,0.09 0.52,0.12 0.09,0 0.21,0.06 0.28,0.06 0.19,0.05 0.33,0.05 0.51,0.09 0.08,0.03 0.19,0.05 0.28,0.08 0.16,0.03 0.3,0.06 0.43,0.08 0.13,0.06 0.22,0.06 0.33,0.06 0.15,0.06 0.29,0.06 0.4,0.12 0.16,0 0.24,0 0.33,0.06 0.16,0.02 0.28,0.06 0.43,0.08 0.12,0.04 0.23,0.06 0.32,0.09 0.14,0.03 0.29,0.03 0.44,0.09 0.09,0.03 0.22,0.06 0.32,0.09 0.14,0 0.29,0.03 0.4,0.09 0.12,0.02 0.24,0.02 0.32,0.05 0.15,0.03 0.3,0.09 0.39,0.12 0.12,0 0.22,0.03 0.34,0.06 0.15,0.02 0.27,0.05 0.41,0.09 0.12,0.02 0.2,0.05 0.29,0.08 0.15,0.03 0.29,0.06 0.44,0.11 0.08,0.04 0.2,0.04 0.26,0.04 0.16,0.08 0.34,0.11 0.49,0.14 0.09,0 0.17,0.03 0.23,0.06 0.21,0.06 0.38,0.09 0.58,0.18 0.03,0 0.09,0 0.11,0.02 0.24,0.03 0.47,0.09 0.71,0.15 0.02,0 0.06,0 0.08,0 0.21,0.09 0.38,0.11 0.58,0.17 0.09,0.03 0.15,0.06 0.21,0.06 0.17,0.06 0.32,0.09 0.46,0.14 0.09,0 0.18,0.03 0.24,0.07 0.15,0.05 0.28,0.08 0.43,0.08 0.09,0.06 0.17,0.09 0.26,0.12 0.11,0 0.27,0.06 0.41,0.11 0.09,0 0.14,0.03 0.26,0.06 0.11,0.03 0.26,0.06 0.38,0.09 0.08,0.03 0.18,0.06 0.26,0.09 0.12,0.06 0.26,0.08 0.38,0.12 0.08,0.02 0.18,0.05 0.26,0.05 0.11,0.06 0.26,0.12 0.37,0.15 0.09,0 0.18,0.02 0.26,0.06 0.15,0.02 0.27,0.08 0.38,0.11 0.09,0 0.18,0.06 0.22,0.09 0.16,0 0.28,0.05 0.42,0.11 0.09,0 0.18,0.03 0.23,0.06 0.15,0.07 0.29,0.09 0.41,0.12 0.06,0.03 0.15,0.06 0.21,0.09 0.15,0.02 0.29,0.08 0.43,0.14 0.04,0 0.09,0 0.17,0.03 0.15,0.06 0.32,0.08 0.5,0.17 0.03,0 0.03,0.03 0.08,0.03 0.38,0.11 0.78,0.27 1.17,0.41 0.03,0 0.06,0 0.09,0.03 0.18,0.05 0.32,0.11 0.49,0.14 0.06,0.06 0.09,0.06 0.14,0.09 0.12,0 0.26,0.09 0.41,0.14 0.06,0 0.12,0 0.18,0.04 0.11,0.05 0.23,0.08 0.35,0.14 0.08,0.03 0.14,0.03 0.19,0.06 0.11,0.06 0.24,0.08 0.36,0.15 0.93,0.32 1.83,0.66 2.67,1.01 0.05,0.03 0.12,0.06 0.17,0.08 0.09,0.04 0.18,0.06 0.27,0.09 0.05,0.03 0.11,0.06 0.17,0.09 0.09,0.06 0.19,0.09 0.29,0.15 0.06,0 0.06,0 0.12,0.02 0.11,0.06 0.26,0.12 0.38,0.18 0.02,0 0.07,0.03 0.14,0.05 0.06,0.03 0.17,0.07 0.26,0.12 0.03,0.03 0.09,0.06 0.12,0.06 0.11,0.03 0.17,0.09 0.25,0.12 0.04,0 0.09,0.05 0.16,0.05 0.09,0.04 0.14,0.09 0.23,0.12 0.02,0.03 0.08,0.03 0.14,0.06 0.08,0.06 0.14,0.09 0.21,0.15 0.05,0.03 0.08,0.03 0.14,0.03 0.09,0.05 0.21,0.11 0.25,0.14 0.03,0 0.07,0.03 0.1,0.03 0.11,0.06 0.23,0.11 0.35,0.17 0.02,0.03 0.05,0.03 0.11,0.06 0.07,0.03 0.15,0.09 0.21,0.11 0.05,0.04 0.08,0.07 0.14,0.1 0.06,0.02 0.12,0.06 0.18,0.08 0.02,0.03 0.11,0.06 0.13,0.09 0.07,0.03 0.13,0.06 0.18,0.09 0.07,0.02 0.09,0.06 0.12,0.06 0.09,0.05 0.15,0.09 0.18,0.11 0.06,0.03 0.09,0.06 0.14,0.08 1.02,0.59 1.86,1.2 2.5,1.75l0 0c0.06,0.09 0.15,0.15 0.17,0.18 0.56,0.49 0.91,1.04 1.05,1.54l0 0zm0 -8.11c0,0.03 0,0.03 0,0.06l0 2.44c0,0.32 -0.18,0.52 -0.49,0.61 0.38,-0.38 -0.09,-0.99 -0.53,-1.46l0 0c-0.09,-0.08 -0.18,-0.17 -0.23,-0.23 -0.08,-0.05 -0.11,-0.14 -0.19,-0.16 -0.59,-0.65 -1.43,-1.29 -2.4,-1.87l-0.02 0c-0.07,-0.06 -0.15,-0.11 -0.23,-0.17 0,0 -0.03,-0.03 -0.07,-0.03 -0.05,-0.03 -0.15,-0.09 -0.23,-0.12 -0.03,-0.03 -0.05,-0.03 -0.05,-0.03 -0.09,-0.05 -0.18,-0.11 -0.27,-0.14l-0.03 -0.03c-0.09,-0.06 -0.17,-0.09 -0.26,-0.14l-0.02 -0.04c-0.09,-0.02 -0.21,-0.11 -0.3,-0.17l-0.03 0c-0.11,-0.06 -0.21,-0.12 -0.29,-0.15l-0.02 -0.02c-0.12,-0.06 -0.21,-0.09 -0.29,-0.15 0,0 -0.03,0 -0.07,-0.03 -0.08,-0.03 -0.18,-0.09 -0.28,-0.15 -0.04,0 -0.04,-0.03 -0.06,-0.03 -0.08,-0.05 -0.2,-0.08 -0.33,-0.14l-0.02 -0.03c-0.1,-0.03 -0.2,-0.09 -0.29,-0.14l-0.03 0c-0.12,-0.06 -0.23,-0.12 -0.36,-0.18 0,0 -0.03,0 -0.05,0 -0.08,-0.05 -0.2,-0.12 -0.31,-0.17l-0.03 0c-0.12,-0.06 -0.24,-0.12 -0.35,-0.15l-0.03 0c-0.09,-0.08 -0.21,-0.11 -0.35,-0.2 0,0 -0.04,0 -0.04,-0.03 -0.11,0 -0.26,-0.06 -0.34,-0.11 -0.03,0 -0.03,-0.04 -0.03,-0.04 -0.93,-0.37 -1.92,-0.78 -2.93,-1.16l0 0c-0.2,-0.05 -0.42,-0.11 -0.58,-0.17 -0.03,-0.03 -0.03,-0.03 -0.06,-0.03 -0.17,-0.06 -0.39,-0.15 -0.55,-0.2 -0.03,0 -0.03,0 -0.03,-0.04 -0.21,-0.05 -0.4,-0.11 -0.61,-0.19l-0.03 0c-0.21,-0.06 -0.42,-0.15 -0.61,-0.23l-0.03 0c-0.18,-0.07 -0.39,-0.15 -0.61,-0.21l0 0c-0.21,-0.09 -0.4,-0.15 -0.61,-0.2 -0.03,0 -0.05,0 -0.05,0 -0.41,-0.15 -0.85,-0.29 -1.26,-0.44 -0.03,0 -0.06,0 -0.06,0 -0.23,-0.06 -0.43,-0.14 -0.6,-0.18 -0.04,-0.02 -0.06,-0.02 -0.06,-0.02 -0.21,-0.06 -0.44,-0.15 -0.64,-0.21l-0.03 0c-0.21,-0.06 -0.44,-0.11 -0.64,-0.2l-0.02 0c-0.24,-0.06 -0.44,-0.14 -0.65,-0.2 -0.03,0 -0.06,0 -0.08,0 -0.18,-0.09 -0.41,-0.12 -0.61,-0.21 0,0 -0.04,0 -0.07,0 -0.43,-0.11 -0.89,-0.29 -1.34,-0.4 -0.02,0 -0.02,0 -0.05,0 -0.2,-0.06 -0.41,-0.12 -0.64,-0.18 -0.02,0 -0.06,0 -0.06,0 -0.23,-0.09 -0.43,-0.11 -0.67,-0.2l-0.03 0c-0.19,-0.06 -0.46,-0.14 -0.69,-0.18l0 0c-0.24,-0.09 -0.44,-0.11 -0.7,-0.17 0,0 -0.03,0 -0.03,-0.03 -0.24,-0.03 -0.43,-0.11 -0.67,-0.17 -0.02,0 -0.02,0 -0.06,0 -0.23,-0.06 -0.45,-0.12 -0.66,-0.15l-0.04 -0.03c-0.22,-0.06 -0.46,-0.11 -0.69,-0.14 -0.03,-0.03 -0.03,-0.03 -0.03,-0.03 -0.23,-0.03 -0.43,-0.09 -0.67,-0.17 -0.02,0 -0.06,0 -0.06,0 -0.22,-0.07 -0.44,-0.12 -0.66,-0.15 -0.03,0 -0.06,0 -0.06,0 -0.24,-0.06 -0.47,-0.12 -0.7,-0.17l-0.02 0c-0.22,-0.07 -0.44,-0.09 -0.67,-0.15 -0.03,0 -0.07,-0.04 -0.07,-0.04 -0.19,-0.02 -0.43,-0.08 -0.63,-0.13 0,0 -0.06,-0.03 -0.1,-0.03 -0.22,-0.04 -0.43,-0.09 -0.63,-0.12l-0.03 0c-0.26,-0.06 -0.49,-0.11 -0.72,-0.14l-0.03 0c-0.24,-0.09 -0.44,-0.12 -0.67,-0.15 -0.03,0 -0.06,0 -0.06,-0.03 -0.24,-0.06 -0.44,-0.09 -0.67,-0.12l-0.02 0c-0.25,-0.05 -0.47,-0.09 -0.7,-0.14 -0.85,-0.18 -1.71,-0.32 -2.59,-0.47l0 -2.64c1.05,0.18 2.06,0.38 3.08,0.58 8.05,1.54 15.4,3.51 21.15,5.64 -1.24,-9 -3.95,-17.55 -7.81,-25.36l0 0c-0.85,-1.69 -1.74,-3.38 -2.68,-5.03 -0.02,0 -0.02,-0.03 -0.02,-0.03 -0.06,-0.03 -0.09,-0.14 -0.12,-0.2 0.43,0 1.42,-0.06 2.76,-0.03 5.4,9.55 9.03,20.25 10.46,31.6 2.18,0.88 4.08,1.78 5.6,2.65 -1.07,-12.05 -4.47,-23.42 -9.76,-33.67 1.02,0.18 2.06,0.41 3.11,0.7 0,-0.03 0,-0.03 0,-0.03 0.12,0.29 0.26,0.55 0.38,0.84l0 0c4.96,10.4 8.04,21.85 8.83,33.9 0.78,0.64 1.3,1.29 1.48,1.86l0 0zm-1.44 10.72c-0.04,0.44 -0.04,0.87 -0.1,1.31l0 0c-0.96,12.17 -4.22,23.67 -9.35,34.11 0.6,1.3 0.75,2.34 0.34,3.19 0,0 -0.78,1.13 -1.16,1.74 -0.37,0.56 -0.52,0.81 -1.17,0.9 0.45,-0.11 1.2,-1.04 0.88,-2.5l0 0c-0.03,-0.2 -0.11,-0.46 -0.2,-0.72l-0.03 0 0 0c-0.15,-0.38 -0.35,-0.79 -0.67,-1.2 -0.64,-1.01 -1.5,-2.12 -2.49,-3.28l-0.04 0c-0.06,-0.11 -0.14,-0.17 -0.19,-0.26 0,0 0,0 -0.04,0 -0.09,-0.14 -0.14,-0.23 -0.23,-0.31l0 -0.04c-1.13,-1.22 -2.39,-2.53 -3.83,-3.89 0,-0.03 -0.04,-0.03 -0.07,-0.03 -0.11,-0.15 -0.25,-0.26 -0.37,-0.4 -0.03,0 -0.03,0 -0.03,0 -0.44,-0.44 -0.89,-0.85 -1.37,-1.28 -0.02,-0.03 -0.05,-0.03 -0.05,-0.06 -0.15,-0.12 -0.29,-0.26 -0.41,-0.38 -0.03,-0.02 -0.06,-0.02 -0.06,-0.02 -0.46,-0.44 -0.99,-0.88 -1.48,-1.31 -0.03,-0.03 -0.03,-0.06 -0.03,-0.09 -0.17,-0.12 -0.32,-0.26 -0.47,-0.38 -0.02,0 -0.06,-0.05 -0.06,-0.05 -0.52,-0.45 -1.03,-0.88 -1.56,-1.31 -0.03,-0.03 -0.05,-0.07 -0.09,-0.09 -0.12,-0.12 -0.28,-0.26 -0.43,-0.35 -0.03,-0.03 -0.06,-0.06 -0.09,-0.09 -0.18,-0.14 -0.33,-0.26 -0.52,-0.4 0,-0.03 0,-0.03 0,-0.03 -0.38,-0.29 -0.73,-0.61 -1.08,-0.91 -0.05,-0.02 -0.08,-0.05 -0.11,-0.08 -0.18,-0.11 -0.32,-0.23 -0.47,-0.35 -0.04,-0.06 -0.09,-0.09 -0.12,-0.09 -0.14,-0.14 -0.32,-0.29 -0.5,-0.41 0,0 -0.03,-0.03 -0.04,-0.05 -0.18,-0.14 -0.39,-0.32 -0.59,-0.47l0 0c-0.17,-0.14 -0.35,-0.29 -0.52,-0.4 -0.06,-0.06 -0.13,-0.09 -0.14,-0.15 -0.15,-0.08 -0.29,-0.2 -0.44,-0.34 -0.04,0 -0.09,-0.07 -0.15,-0.09 -0.14,-0.12 -0.29,-0.24 -0.47,-0.38 -0.02,-0.06 -0.08,-0.06 -0.12,-0.09 -0.19,-0.14 -0.39,-0.29 -0.57,-0.44 0,-0.02 0,-0.02 -0.03,-0.02 -0.17,-0.15 -0.35,-0.29 -0.56,-0.47 -0.02,-0.03 -0.08,-0.09 -0.17,-0.12 -0.11,-0.08 -0.26,-0.22 -0.4,-0.31 -0.06,-0.03 -0.13,-0.09 -0.18,-0.15 -0.14,-0.11 -0.29,-0.2 -0.44,-0.32 -0.02,-0.06 -0.08,-0.09 -0.14,-0.11 -0.2,-0.15 -0.4,-0.33 -0.58,-0.47 -0.04,0 -0.04,-0.03 -0.05,-0.06 -0.18,-0.12 -0.35,-0.26 -0.56,-0.38 -0.03,-0.02 -0.11,-0.11 -0.15,-0.14 -0.14,-0.12 -0.28,-0.2 -0.44,-0.32 -0.05,-0.06 -0.13,-0.09 -0.19,-0.14 -0.14,-0.09 -0.3,-0.21 -0.41,-0.33 -0.06,-0.06 -0.15,-0.08 -0.2,-0.15 -0.2,-0.14 -0.41,-0.26 -0.58,-0.46 0.17,-1.01 0.31,-2.03 0.4,-3.1 7.64,5.6 14.12,10.83 18.74,15.24 2.9,-6.79 4.91,-14.08 5.92,-21.67l0 0c0.04,-0.14 0.07,-0.34 0.07,-0.46l0 -0.03c0.05,-0.35 0.08,-0.64 0.14,-0.95 0,-0.07 0,-0.12 0,-0.18 0.03,-0.26 0.05,-0.55 0.09,-0.84 0.03,-0.12 0.03,-0.3 0.05,-0.44 0.02,-0.2 0.02,-0.44 0.06,-0.64 0,-0.2 0.03,-0.37 0.06,-0.58 0,-0.11 0,-0.26 0,-0.37 0.03,-0.18 0.06,-0.35 0.06,-0.56 0,-0.14 0.03,-0.32 0.03,-0.46 0,-0.15 0.02,-0.3 0.02,-0.44 0.04,-0.35 0.07,-0.7 0.1,-1.08 0.58,-0.03 1.39,-0.08 2.4,0 -0.49,10.78 -3.01,21.13 -7.14,30.53 1.57,1.6 2.85,3.06 3.81,4.37 4.91,-10.38 7.9,-21.85 8.56,-33.91 0.79,0.23 1.57,0.58 2.4,0.99l0 0zm-20.12 52.29c-0.2,0.29 -0.43,0.55 -0.66,0.81l-0.04 0.04c-0.17,0.23 -0.37,0.49 -0.57,0.75 -16.22,19.56 -40.21,32.52 -67.26,34l0 1.45c0,0.08 -0.02,0.14 -0.08,0.2 -0.03,0 -0.09,0.09 -0.21,0.09l-2 0c-0.14,0 -0.23,-0.15 -0.23,-0.29l0 -25.37c0.87,0 1.69,-0.05 2.52,-0.14l0 13.89c20.92,-1.36 39.78,-10.32 53.77,-24.18l0 0c0.04,-0.03 0.06,-0.05 0.13,-0.09 0.17,-0.2 0.36,-0.4 0.58,-0.61 0.03,-0.02 0.05,-0.02 0.05,-0.05 1.71,-1.75 3.37,-3.55 4.95,-5.47 0.86,0.23 1.7,0.53 2.49,0.79 -14.82,18.36 -36.95,30.51 -61.97,32.02l0 5.37c27.05,-1.56 50.96,-14.81 66.73,-34.83 0.9,0.69 1.52,1.27 1.8,1.62l0 0zm2.68 -2.41c0.14,0.58 0.09,1.1 -0.21,1.43 0,0 -0.75,1.27 -1.04,1.67 -0.27,0.42 -0.76,0.97 -1.63,1.02 0.2,-0.11 1.72,-0.23 0.84,-2.52l0 0c-0.05,-0.23 -0.16,-0.46 -0.29,-0.7 -0.23,-0.46 -0.55,-0.99 -1.01,-1.63l0.03 0c-0.85,-1.07 -2.07,-2.46 -3.64,-4.01l0 0c-0.55,-0.55 -1.13,-1.1 -1.77,-1.68l0 0c-3.63,-3.37 -8.66,-7.53 -14.96,-12.29 0.41,-0.78 0.78,-1.62 1.16,-2.43l0 0c7.41,5.52 13.48,10.45 17.46,14.34l0 0c0.32,0.29 0.62,0.61 0.87,0.9 0.03,0.03 0.07,0.03 0.07,0.06 0.05,0.09 0.17,0.15 0.22,0.24 0.03,0.02 0.03,0.02 0.06,0.05 0.06,0.06 0.14,0.12 0.21,0.23 0.02,0 0.05,0.03 0.05,0.03 0.07,0.09 0.15,0.18 0.2,0.24 0.04,0 0.04,0.03 0.07,0.06 0.05,0.08 0.14,0.14 0.17,0.2 0.03,0.03 0.06,0.05 0.06,0.09 0.08,0.05 0.14,0.11 0.2,0.2 0,0 0.03,0.03 0.06,0.03 0.09,0.08 0.14,0.17 0.2,0.26 0,0 0,0 0,0.03 0.18,0.17 0.32,0.32 0.42,0.46l0.04 0.06c0.07,0.09 0.12,0.14 0.21,0.23 0,0.03 0,0.03 0.03,0.03 0.05,0.09 0.09,0.14 0.15,0.21 0.02,0.02 0.02,0.05 0.06,0.09 0.66,0.89 1.15,1.65 1.45,2.35 0,0.02 0.03,0.08 0.05,0.14 0,0.03 0.04,0.03 0.04,0.03 0,0.06 0.02,0.09 0.02,0.12 0.03,0.02 0.03,0.09 0.03,0.09 0.07,0.14 0.09,0.25 0.12,0.37l0 0zm-81.75 -142.26l0 -9.36c0,-0.14 0.12,-0.23 0.23,-0.23l2.07 0c0.14,0 0.19,0.09 0.19,0.23l0 28.33 -2.49 -0.03 0 -18.94 0 0zm-90.23 84.16l0 -2.44c0,-0.03 0,-0.03 0.02,-0.06 0.18,-0.57 0.7,-1.22 1.49,-1.86 0.67,-10.02 2.9,-19.6 6.48,-28.55 0.02,-0.04 0.04,-0.09 0.04,-0.15 0.07,-0.08 0.1,-0.18 0.16,-0.29 0.06,-0.17 0.11,-0.32 0.2,-0.49l0 -0.03c0.12,-0.29 0.26,-0.64 0.4,-0.96 0.04,-0.09 0.07,-0.17 0.13,-0.24 0.4,0.12 1.25,0.35 2.26,0.79 -3.78,8.77 -6.25,18.25 -7.09,28.18 1.51,-0.87 3.43,-1.78 5.61,-2.65 1.01,-7.92 3.05,-15.51 6.04,-22.59 0.64,0.58 1.25,1.24 1.84,1.94 -0.53,1.25 -1,2.5 -1.47,3.8 0,0.04 -0.02,0.09 -0.05,0.15 -1.74,5.06 -3.03,10.31 -3.78,15.72 5.76,-2.1 13.1,-4.07 21.12,-5.61 1.02,-0.23 2.09,-0.41 3.15,-0.58l0 2.61c-0.9,0.18 -1.78,0.32 -2.65,0.5 -0.23,0.05 -0.44,0.09 -0.7,0.14l-0.03 0c-0.23,0.03 -0.43,0.06 -0.63,0.12 -0.04,0.02 -0.06,0.02 -0.09,0.02 -0.25,0.04 -0.44,0.07 -0.64,0.16l-0.06 0c-0.23,0.02 -0.47,0.08 -0.7,0.14l-0.03 0c-0.23,0.03 -0.43,0.08 -0.68,0.12 -0.01,0 -0.01,0.02 -0.04,0.02 -0.2,0.06 -0.47,0.12 -0.64,0.14 -0.03,0 -0.05,0.04 -0.09,0.04 -0.2,0.05 -0.44,0.08 -0.66,0.14 0,0 0,0 -0.04,0 -0.2,0.06 -0.46,0.12 -0.69,0.18l-0.03 0c-0.24,0.03 -0.47,0.08 -0.67,0.14l-0.06 0c-0.23,0.06 -0.43,0.15 -0.67,0.18 -0.03,0 -0.03,0 -0.03,0 -0.26,0.06 -0.49,0.11 -0.72,0.17l0 0c-0.23,0.06 -0.44,0.12 -0.7,0.18 0,0 0,0 -0.03,0 -0.24,0.06 -0.43,0.14 -0.64,0.17 -0.03,0.03 -0.06,0.03 -0.06,0.03 -0.23,0.06 -0.46,0.08 -0.69,0.17l0 0c-0.23,0.04 -0.47,0.12 -0.7,0.18l-0.03 0c-0.25,0.06 -0.43,0.11 -0.67,0.2 0,0 -0.02,0 -0.06,0 -0.2,0.03 -0.4,0.12 -0.63,0.18 -0.03,0 -0.03,0 -0.03,0 -0.47,0.11 -0.93,0.29 -1.4,0.4l0 0c-0.23,0.09 -0.46,0.12 -0.67,0.2l-0.02 0c-0.24,0.07 -0.44,0.15 -0.68,0.21 0,0 0,0 -0.02,0 -0.21,0.09 -0.44,0.14 -0.64,0.2l0 0c-0.24,0.06 -0.47,0.15 -0.67,0.21l-0.03 0c-0.23,0.06 -0.44,0.14 -0.64,0.2 -0.02,0 -0.02,0 -0.02,0 -0.44,0.15 -0.88,0.26 -1.28,0.44l-0.03 0c-0.24,0.05 -0.41,0.11 -0.65,0.2l-0.03 0c-0.2,0.05 -0.37,0.14 -0.57,0.21 -0.04,0 -0.04,0 -0.04,0 -0.4,0.16 -0.84,0.28 -1.25,0.42 0,0.04 -0.02,0.04 -0.02,0.04 -0.17,0.05 -0.38,0.11 -0.56,0.17 -0.03,0.03 -0.03,0.03 -0.03,0.03 -0.2,0.06 -0.4,0.15 -0.57,0.2l0 0c-0.9,0.32 -1.72,0.64 -2.54,1.02l0 0c-0.11,0.03 -0.22,0.09 -0.37,0.14 0,0 -0.03,0 -0.06,0.04 -0.11,0.02 -0.23,0.11 -0.32,0.11 -0.02,0 -0.06,0.03 -0.06,0.03 -0.26,0.11 -0.49,0.23 -0.72,0.35l-0.03 0c-0.11,0.05 -0.23,0.12 -0.38,0.17 0,0 0,0 -0.03,0 -0.12,0.06 -0.23,0.12 -0.35,0.18l0 0c-0.11,0.05 -0.23,0.11 -0.35,0.17l0 0c-0.11,0.05 -0.23,0.12 -0.31,0.14l-0.06 0.03c-0.09,0.06 -0.23,0.12 -0.32,0.18l-0.03 0c-0.2,0.12 -0.44,0.23 -0.64,0.32l-0.03 0c-0.09,0.06 -0.2,0.14 -0.29,0.21l-0.03 0c-0.2,0.11 -0.4,0.22 -0.58,0.34l0 0c-0.13,0.03 -0.2,0.12 -0.29,0.15 -0.03,0 -0.03,0 -0.03,0 -0.08,0.08 -0.17,0.11 -0.3,0.21l0 0c-0.92,0.6 -1.76,1.18 -2.34,1.82 -0.06,0.03 -0.09,0.08 -0.15,0.14l0 0c-0.52,0.53 -1.28,1.23 -0.84,1.72 -0.26,-0.09 -0.49,-0.3 -0.49,-0.61l0 0zm90.14 -91.94c-0.14,0.02 -0.3,0.05 -0.4,0.05 0.1,-0.03 0.28,-0.03 0.4,-0.05zm88.02 48.65c0.92,0.47 1.6,0.9 1.92,1.28 0,0 1.14,1.95 1.39,2.41 0.27,0.47 -0.05,1.05 -0.66,1.25 0.35,-0.11 0.73,-0.55 -0.24,-1.13 -0.26,-0.14 -0.55,-0.29 -0.81,-0.44l0 0c-0.05,-0.02 -0.08,-0.05 -0.12,-0.05 -2.58,-1.34 -6.32,-2.68 -11.07,-4.07l0 0.03c-1.13,-0.33 -2.29,-0.64 -3.54,-0.96l0 -0.03c-3.22,-0.82 -6.79,-1.65 -10.63,-2.47l0 -2.58c0.46,0.08 0.95,0.2 1.4,0.32 0.03,0 0.06,0 0.08,0 0.12,0.02 0.26,0.05 0.38,0.08 0.06,0 0.09,0.03 0.15,0.06 0.08,0 0.23,0.03 0.35,0.03 0.01,0.03 0.08,0.03 0.11,0.03 0.14,0.05 0.26,0.05 0.38,0.08 0.06,0 0.09,0.04 0.14,0.04 0.12,0.02 0.24,0.05 0.32,0.08 0.09,0 0.12,0.03 0.21,0.03 0.09,0.03 0.2,0.06 0.32,0.08 0.05,0 0.14,0 0.2,0.04 0.09,0.03 0.18,0.05 0.29,0.05 0.14,0.07 0.32,0.09 0.47,0.15 0.03,0 0.07,0 0.1,0.03 0.16,0 0.27,0.03 0.42,0.06 0.03,0.02 0.09,0.02 0.14,0.05 0.12,0.03 0.23,0.03 0.35,0.06 0.06,0.03 0.09,0.06 0.15,0.06 0.12,0.03 0.23,0.03 0.35,0.06 0.05,0.03 0.08,0.03 0.14,0.06 0.12,0.02 0.23,0.05 0.35,0.08 0.05,0 0.09,0 0.12,0.04 0.14,0.02 0.26,0.05 0.41,0.08 0.01,0 0.04,0 0.08,0.03 0.14,0.03 0.29,0.06 0.43,0.09 0,0 0.03,0 0.06,0 0.15,0.09 0.32,0.12 0.5,0.14 1.25,0.32 2.5,0.64 3.69,0.96 0.17,0.06 0.38,0.09 0.52,0.15l0 0c0.37,0.09 0.75,0.17 1.11,0.28l0 0c0.55,0.18 1.04,0.3 1.56,0.44l0 0c1.69,0.53 3.22,1.05 4.62,1.51l0 0c1.46,0.53 2.71,0.96 3.66,1.45 0.06,0.03 0.09,0.03 0.18,0.06l0.02 0 0 0zm-79.91 -48.74l0 -1.49c0,-0.05 0.03,-0.14 0.09,-0.17 0,0 0.05,-0.06 0.14,-0.06l2 0c0.18,0 0.27,0.09 0.27,0.23l0 1.58c29.77,1.68 55.83,17.16 71.89,40.11 1.17,0.55 2.13,1.1 2.86,1.68 0.02,0 0.05,0 0.08,0.04 0,0 1.45,2.44 1.86,2.96 0.35,0.47 0.06,1.08 -0.41,1.31 0.31,-0.23 0.47,-0.52 -0.47,-1.31 -0.28,-0.23 -0.61,-0.49 -0.95,-0.7l0 0c-0.09,-0.05 -0.14,-0.08 -0.21,-0.14l0 0c-0.11,-0.06 -0.16,-0.12 -0.29,-0.17l0 0c-1.21,-0.73 -2.71,-1.43 -4.36,-2.13l0 0c-0.16,-0.09 -0.32,-0.11 -0.46,-0.2 -0.02,0 -0.02,-0.03 -0.06,-0.03 -0.14,-0.06 -0.29,-0.11 -0.45,-0.17 0,0 -0.04,-0.03 -0.07,-0.03 -0.14,-0.06 -0.29,-0.12 -0.46,-0.17l0 0c-0.17,-0.04 -0.32,-0.12 -0.5,-0.18 -0.03,0 -0.06,-0.03 -0.08,-0.03 -0.15,-0.06 -0.32,-0.09 -0.5,-0.18l0 0c-0.14,-0.05 -0.31,-0.14 -0.49,-0.17 0,0 -0.03,-0.03 -0.06,-0.03 -0.18,-0.06 -0.35,-0.08 -0.5,-0.17 -0.02,-0.03 -0.05,-0.03 -0.08,-0.06 -0.35,-0.09 -0.7,-0.21 -1.05,-0.32 -0.03,0 -0.05,0 -0.09,-0.03 -0.14,-0.03 -0.35,-0.08 -0.51,-0.17l-0.04 0c-0.17,-0.06 -0.38,-0.12 -0.52,-0.18l-0.02 0c-0.21,-0.06 -0.39,-0.12 -0.57,-0.17 -0.04,-0.03 -0.05,-0.03 -0.08,-0.03 -0.17,-0.03 -0.37,-0.12 -0.55,-0.15l0 0c-0.2,-0.05 -0.38,-0.11 -0.55,-0.2 -0.04,0 -0.07,0 -0.07,0 -0.19,-0.06 -0.39,-0.11 -0.57,-0.15 -0.03,-0.02 -0.03,-0.02 -0.07,-0.02 -1.56,-0.47 -3.12,-0.9 -4.75,-1.28l0 0c-0.26,-0.06 -0.53,-0.15 -0.83,-0.18l0 0c-0.25,-0.08 -0.51,-0.14 -0.77,-0.23l0 0c-0.26,-0.02 -0.53,-0.09 -0.79,-0.14 0,0 0,0 -0.02,0 -0.28,-0.09 -0.52,-0.15 -0.76,-0.21l-0.03 0 0 -5.95c1.54,1.45 2.99,2.93 4.42,4.45 3.53,0.92 6.73,1.94 9.44,2.93 -15.75,-20.51 -40.03,-34.14 -67.51,-35.71l0 5.29c18.53,1.13 35.44,8.08 49,19.03l-3.95 0c-12.72,-9.5 -28.21,-15.55 -45.05,-16.56l0 16.5 -2.5 0 0 -26.84 0 0zm-62.4 153.27c13.5,13.63 31.66,22.64 51.88,24.5l0.37 2.47c-25.76,-2.12 -48.34,-15.67 -62.69,-35.49 1.58,-0.05 2.71,0.09 3.15,0.15 2.21,2.88 4.55,5.61 7.09,8.19 0.08,0.09 0.14,0.12 0.2,0.18l0 0 0 0zm-28.5 -95.23c-0.18,-0.73 -0.04,-1.45 0.08,-1.6l1.2 -2.23c0.02,-0.06 0.02,-0.09 0.02,-0.09 0.38,-0.26 0.9,-0.41 1.6,-0.47 0,0 0.03,0 0.06,0 0.03,0 0.06,0 0.09,0l0 0c0.17,-0.03 0.35,-0.06 0.52,-0.06 0.62,0 1.31,0.09 2.09,0.18l0 0c1.51,0.26 3.32,0.63 5.38,1.28 0.72,0.2 1.51,0.46 2.32,0.72l0 0c0.29,0.06 0.55,0.18 0.85,0.27l0 0c0.13,0.02 0.28,0.08 0.43,0.14l0 0c0.15,0.03 0.29,0.12 0.41,0.15l0 0c0.14,0.03 0.29,0.11 0.43,0.11 0.03,0.03 0.03,0.03 0.03,0.03 0.14,0.06 0.29,0.12 0.41,0.15l0.02 0c0.15,0.05 0.29,0.11 0.42,0.17l0.02 0c0.15,0.06 0.3,0.09 0.43,0.14 0,0.03 0.04,0.03 0.04,0.03 0.14,0.03 0.29,0.12 0.43,0.15l0.03 0c0.14,0.09 0.3,0.14 0.44,0.18l0.02 0c0.15,0.08 0.29,0.11 0.44,0.17 0,0 0,0.03 0.03,0.03 0.14,0.03 0.29,0.09 0.41,0.15 0.03,0 0.03,0 0.05,0 0.15,0.08 0.3,0.11 0.41,0.2 0.03,0 0.06,0 0.09,0.03 0.11,0.02 0.26,0.06 0.41,0.11 0.03,0.03 0.03,0.06 0.06,0.06 0.14,0.03 0.28,0.12 0.4,0.12 0.03,0.03 0.06,0.03 0.09,0.05 0.15,0.06 0.26,0.09 0.4,0.15 0.04,0.03 0.07,0.03 0.09,0.06 0.15,0.06 0.27,0.09 0.41,0.14 0.06,0 0.07,0.03 0.11,0.03 0.15,0.09 0.27,0.12 0.39,0.18 0.02,0.02 0.08,0.02 0.11,0.02 0.14,0.07 0.26,0.12 0.38,0.15 0.05,0.03 0.09,0.06 0.14,0.06 0.12,0.08 0.23,0.12 0.38,0.14 0.02,0.03 0.06,0.06 0.11,0.06 0.15,0.06 0.27,0.15 0.41,0.17 0.03,0.04 0.06,0.07 0.12,0.07 0.11,0.02 0.26,0.08 0.37,0.14 0.04,0.02 0.09,0.06 0.16,0.06 0.11,0.06 0.22,0.09 0.34,0.14 0.06,0.03 0.11,0.06 0.16,0.09 0.13,0.03 0.25,0.08 0.36,0.15 0.09,0 0.12,0.02 0.21,0.05 0.11,0.06 0.23,0.12 0.34,0.15 0.06,0.03 0.12,0.06 0.18,0.08 0.12,0.07 0.24,0.09 0.35,0.15 0.06,0.03 0.12,0.06 0.17,0.12 0.12,0.03 0.26,0.08 0.35,0.12 0.06,0.02 0.14,0.09 0.21,0.09 0.11,0.05 0.23,0.11 0.34,0.14 0.06,0.05 0.12,0.08 0.21,0.12 0.09,0.02 0.2,0.08 0.32,0.14 0.07,0 0.14,0.05 0.23,0.09 0.12,0.02 0.23,0.09 0.32,0.14 0.09,0.03 0.16,0.03 0.23,0.09 0.15,0.05 0.26,0.08 0.4,0.17 0.07,0.03 0.1,0.03 0.15,0.09 0.2,0.08 0.38,0.17 0.59,0.2l0 2.79c-6.61,-2.94 -12.33,-5.23 -16.97,-6.71l0 0c-0.79,-0.29 -1.58,-0.52 -2.32,-0.73l0.02 0c-2.09,-0.61 -3.92,-0.98 -5.37,-1.19 -0.09,0 -0.16,0 -0.23,-0.03 0,0 0,0 -0.03,0 -0.06,0 -0.15,-0.03 -0.2,-0.03 -0.04,0 -0.04,0 -0.04,0 -0.08,0 -0.15,0 -0.19,0 -0.04,0 -0.07,0 -0.07,-0.02 -0.05,0 -0.11,0 -0.14,0 -0.06,0 -0.06,0 -0.12,0 -0.02,0 -0.09,0 -0.14,-0.04 0,0 -0.06,0 -0.1,0 -0.02,0 -0.05,0 -0.12,0 -0.05,0 -0.07,0 -0.1,0 -0.06,0 -0.09,0 -0.09,0 -0.09,0 -0.15,0 -0.23,0 -0.26,0 -0.56,0 -0.82,0.04l0 0c-0.89,0.08 -1.68,0.49 -1.94,2l0 0zm80.41 -47.55c-15.89,1.42 -30.48,7.29 -42.56,16.32l-3.93 0c13.05,-10.54 29.18,-17.32 46.83,-18.79l-0.34 2.47zm-66.24 29.28c0.06,0.03 0.09,0.03 0.12,0.03 -0.03,0 -0.06,0 -0.12,-0.03l0 0zm-5.49 2.5l0 0c0,0 0.03,0 0.06,-0.04 0.02,0 0.05,0 0.09,0 0.03,-0.05 0.05,-0.05 0.11,-0.05l0.04 0c0.02,0 0.08,0 0.08,0 0.03,-0.03 0.06,-0.03 0.06,-0.03 0.03,0 0.08,0 0.11,-0.03l0.03 0c0.12,0 0.23,-0.03 0.36,-0.06l0 0c0.39,-0.06 0.87,-0.08 1.39,-0.08l0.17 0c0.41,0 0.88,0.02 1.37,0.05l0 0c0.09,0.03 0.2,0.03 0.29,0.06 0,0 0,0 0.03,0.03 0.29,0.03 0.61,0.06 0.92,0.11l0 0c0.12,0 0.21,0.04 0.35,0.07l0 0c0.32,0.05 0.67,0.14 1.02,0.17l0 0c0.12,0.03 0.23,0.06 0.35,0.08l0.03 0c0.35,0.09 0.73,0.18 1.1,0.26l0 0c1.25,0.3 2.62,0.7 4.07,1.17l0 0c0.12,0.03 0.26,0.09 0.41,0.12 0.05,0.03 0.09,0.03 0.12,0.03 0.14,0.05 0.25,0.11 0.4,0.14 0.03,0.03 0.06,0.03 0.09,0.06 0.43,0.11 0.86,0.29 1.26,0.43 0.1,0.03 0.16,0.03 0.25,0.06 0.11,0.03 0.23,0.09 0.34,0.12 0.09,0.03 0.16,0.06 0.23,0.11 0.12,0 0.24,0.06 0.36,0.12 0.17,0.06 0.38,0.11 0.55,0.18 0.09,0.05 0.2,0.08 0.29,0.12 0.12,0.02 0.23,0.08 0.32,0.11 0.12,0.03 0.2,0.09 0.31,0.11 0.12,0.03 0.25,0.09 0.35,0.15 0.12,0 0.18,0.06 0.27,0.09 0.2,0.09 0.44,0.16 0.64,0.26 0.06,0.02 0.08,0.06 0.15,0.06 0.17,0.08 0.34,0.11 0.52,0.2 0.05,0.03 0.12,0.06 0.24,0.08 0.13,0.06 0.3,0.12 0.49,0.18 0.05,0.06 0.11,0.06 0.2,0.09 0.19,0.08 0.46,0.2 0.66,0.29l0 -5.35c-0.78,0.18 -1.56,0.32 -2.32,0.49 -0.67,0.15 -1.37,0.32 -2.03,0.47l0 0c-0.21,-0.06 -0.41,-0.15 -0.62,-0.2 -0.08,-0.03 -0.19,-0.06 -0.29,-0.09 -0.09,-0.06 -0.2,-0.09 -0.28,-0.11 -0.09,-0.03 -0.2,-0.07 -0.35,-0.12 -0.06,-0.03 -0.12,-0.06 -0.2,-0.06 -0.12,-0.09 -0.24,-0.09 -0.35,-0.14 -0.09,-0.03 -0.15,-0.06 -0.24,-0.06 -1.54,-0.52 -2.99,-0.96 -4.33,-1.34 0,0 -0.03,0 -0.07,0 -0.1,0 -0.21,-0.03 -0.33,-0.09 -0.07,0 -0.07,0 -0.09,-0.02 -0.12,0 -0.25,-0.03 -0.38,-0.07 0,0 0,-0.02 -0.03,-0.02 -0.14,-0.06 -0.29,-0.06 -0.4,-0.09l0 0c-0.04,0 -0.04,0 -0.06,-0.03 0.02,0.03 0.02,0.03 0.06,0.03 0.17,-0.06 0.34,-0.11 0.52,-0.18 0.03,0 0.03,-0.02 0.03,-0.02 0.21,-0.06 0.37,-0.12 0.55,-0.15 0,0 0.03,-0.03 0.06,-0.03 0.2,-0.08 0.37,-0.14 0.58,-0.2l0 0c0.41,-0.12 0.78,-0.24 1.22,-0.35l0 -0.03c0.21,-0.06 0.41,-0.09 0.61,-0.17l0.03 0c2.64,-0.78 5.54,-1.54 8.71,-2.24l0 -2.61c0,0 -0.03,0 -0.05,0.03 0.02,-0.03 0.05,-0.03 0.05,-0.07l0 -3.33c-1.54,1.45 -3.05,2.96 -4.47,4.47 -3.6,0.96 -6.8,1.95 -9.5,2.99 15.51,-20.25 39.34,-33.87 66.35,-35.78l0.37 -2.45c-29.13,1.86 -54.63,17 -70.58,39.42 -1.35,0.06 -2.33,0.35 -2.99,0.81 0,0.07 0,0.09 -0.03,0.09l-1.38 2.48c-0.03,0.02 -0.22,0.63 -0.1,1.18 0.1,-0.84 0.63,-1.53 1.85,-1.88l0 0z"></path> <path class="fil6" d="M61.74 190.08c1.01,-7.92 3.05,-15.51 6.04,-22.59 -1.54,-1.46 -3.23,-2.36 -4.56,-2.94 -3.78,8.77 -6.25,18.25 -7.09,28.18 1.51,-0.87 3.43,-1.78 5.61,-2.65zm164.95 45.52c1.57,1.6 2.85,3.06 3.81,4.37 4.91,-10.38 7.9,-21.85 8.56,-33.91 -1.97,-0.64 -3.74,-0.9 -5.23,-0.99 -0.49,10.78 -3.01,21.13 -7.14,30.53l0 0zm-156.79 3.41c-5.08,-10.35 -8.16,-21.85 -8.71,-33.94 -1.45,0.06 -3.31,0.35 -5.33,1.02 0.74,12.64 4.02,24.61 9.3,35.44 1.25,-0.84 2.89,-1.71 4.74,-2.52zm82.91 48.17l0 5.37c27.05,-1.56 50.96,-14.81 66.73,-34.83 -1.13,-0.82 -2.73,-1.78 -4.76,-2.56 -14.82,18.36 -36.95,30.51 -61.97,32.02l0 0zm-75.36 -35.63c-1.59,0.03 -3.65,0.27 -5.83,0.94 15.34,22.6 40.51,37.94 69.34,40.01l-0.82 -5.46c-25.76,-2.12 -48.34,-15.67 -62.69,-35.49l0 0zm75.34 -136.88c18.53,1.13 35.44,8.08 49,19.02l4.65 0 0 4.02c1.54,1.45 2.99,2.93 4.42,4.45 3.53,0.92 6.73,1.94 9.44,2.93 -15.75,-20.51 -40.03,-34.14 -67.51,-35.71l0 5.29zm76.31 44.39c-2.46,-0.44 -4.68,-0.55 -6.3,-0.58 5.4,9.55 9.03,20.25 10.46,31.6 2.18,0.87 4.08,1.78 5.6,2.65 -1.07,-12.05 -4.47,-23.42 -9.76,-33.67zm-154.52 -13.86c15.51,-20.25 39.34,-33.87 66.35,-35.78l-0.79 5.4c-17.65,1.47 -33.78,8.25 -46.83,18.79l-4.76 0 0 4.13c-1.54,1.45 -3.05,2.96 -4.47,4.47 -3.6,0.96 -6.8,1.95 -9.5,2.99z"></path> <path class="fil6" d="M227.65 150.98c-4.3,-2.81 -12.87,-5.43 -21.21,-7.32l0 5.12c10.46,2.17 19.78,4.88 23.85,6.82l-2.64 -4.62 0 0z"></path> <path class="fil6" d="M84.2 149.5c1.39,-0.32 2.84,-0.67 4.35,-0.96l0 -4.82c-4.67,1.05 -8.89,2.21 -12.31,3.37 2.24,0.55 4.9,1.34 7.96,2.41z"></path> <path class="fil7" d="M88.59 185.52c-0.9,0.18 -1.78,0.32 -2.65,0.5 -13.28,2.55 -28.15,7.23 -32.42,11.57 -0.13,0.14 -0.29,0.28 -0.47,0.39l0 4.98c3.75,-3.7 16.57,-8.26 32.39,-11.39 1.02,-0.23 2.09,-0.41 3.15,-0.62l0 -5.43z"></path> <path class="fil7" d="M241.46 197.59c-4.28,-4.34 -19.13,-9.02 -32.43,-11.57 -0.85,-0.18 -1.71,-0.32 -2.59,-0.47l0 5.4c1.05,0.21 2.06,0.39 3.11,0.62 15.77,3.13 28.52,7.66 32.33,11.36l0 -4.95c-0.18,-0.14 -0.31,-0.28 -0.42,-0.39z"></path> <path class="fil7" d="M93.03 234.56c-3.54,0.79 -6.97,1.66 -10.29,2.64 -7.99,2.27 -16.64,5.81 -18.3,8.55 0,0.02 -0.03,0.05 -0.05,0.09l2.9 4.73c1.77,-2.18 7.72,-5.38 17.11,-8.05 3.75,-1.07 7.4,-1.97 11.1,-2.78 -0.94,-1.67 -1.75,-3.41 -2.47,-5.18z"></path> <polygon class="fil7" points="144.76,133.64 150.29,133.64 150.29,106.36 144.76,106.36 "></polygon> <path class="fil7" d="M147.41 271.14c-0.87,0 -1.78,-0.03 -2.65,-0.06l0 24.76 5.53 0 0 -24.82c-0.98,0.09 -1.92,0.12 -2.88,0.12z"></path> <path class="fil7" d="M230 243.88c-3.63,-5.69 -13.08,-13.79 -24.31,-22.25 -0.79,4.95 -2.24,9.68 -4.19,14.16 12.49,9.29 21.15,16.93 22.4,20.77l7 -10.76c-0.08,-0.55 -0.38,-1.19 -0.9,-1.92l0 0z"></path> <path class="fil7" d="M88.55 153.89c-8.19,-3.34 -14.29,-5.06 -17.98,-5.11l-0.17 0c-0.96,0 -1.71,0.11 -2.33,0.29l-5.81 11.38c0.21,0 0.47,-0.06 0.7,-0.06 4.5,0 13.71,3.11 25.63,8.37l-0.04 -14.87 0 0z"></path> <path class="fil8" d="M222.1 258.88l0 0c0,-0.06 -0.03,-0.1 -0.03,-0.17l0 0c-0.03,-0.07 -0.06,-0.16 -0.09,-0.18l0 0c-0.05,-0.23 -0.16,-0.46 -0.29,-0.7 -0.78,-1.63 -3.01,-4.21 -6.39,-7.32 -0.03,-0.03 -0.05,-0.06 -0.05,-0.09 0,0 -0.06,0 -0.06,-0.03l0 0.03c-3.61,-3.39 -8.61,-7.46 -14.85,-12.2 -2.87,5.81 -6.71,11.1 -11.24,15.63 -5.29,5.26 -11.59,9.56 -18.59,12.58 9.06,-0.82 17.69,-1.98 24.63,-3.43 2.5,-0.38 6.71,-1.28 11.44,-2.41 1.98,-1.97 3.9,-4.03 5.71,-6.22 5.19,1.28 8.27,4.07 9.05,4.97 -0.43,0.55 -0.9,1.11 -1.38,1.71 0.25,0 0.48,0 0.69,0 0.2,0 0.37,0 0.57,-0.05 0.33,-0.12 1.37,-0.32 0.91,-2.1 -0.03,0 -0.03,0 -0.03,-0.02l0 0zm20.22 -52.15l0 0c0,0 0,0 -0.04,0 0,0 0,0 0,-0.03 0,0 0,-0.03 -0.01,-0.06l0 0c-0.04,0 -0.04,0 -0.04,-0.03l0 0 -0.03 -0.02 0 -0.06 -0.05 0 0 -0.03 -0.04 -0.03 0 0c0,-0.03 0,-0.03 0,-0.03l-0.02 -0.03 0 0c0,-0.03 0,-0.03 0,-0.03 -0.03,0 -0.03,0 -0.03,0l-0.03 0c0,0 0,-0.06 -0.03,-0.06 -0.03,-0.03 -0.05,-0.05 -0.09,-0.11l0 0c-0.08,-0.09 -0.21,-0.24 -0.32,-0.36 -0.17,-0.23 -0.41,-0.43 -0.66,-0.66 -1.64,-1.37 -4.28,-2.81 -7.53,-4.18 -0.58,-0.27 -1.24,-0.49 -1.89,-0.76 0,0.24 0,0.47 0,0.64 0,0.12 0,0.24 0,0.35 -8.48,2.64 -18.71,4.61 -25.07,5.72l0 5.38c0,1.65 -0.09,3.32 -0.23,4.94 9.62,-1.52 18.12,-3.4 24.54,-5.18 0.33,-2.32 0.53,-4.67 0.68,-7.03 1.77,-0.14 5.75,-0.14 10.03,1.98 -0.04,0.44 -0.04,0.87 -0.1,1.31 0.41,-0.2 0.73,-0.41 0.99,-0.58 0.2,-0.35 0.11,-0.7 0,-0.99 0,0 -0.03,0 -0.03,-0.06l0 0zm-13.06 41.6c0.12,0 0.22,0 0.28,0 0.2,0 0.4,0 0.55,-0.05 0.43,-0.18 1.1,-1.11 0.81,-2.48l-1.64 2.53 0 0zm-0.07 -95.44c0.24,-0.19 0.26,-0.51 -0.59,-1.21 -0.28,-0.23 -0.61,-0.49 -0.95,-0.7l1.16 2.07c0.14,-0.04 0.26,-0.06 0.38,-0.16zm13.22 46.55c0.38,-0.38 -0.09,-0.99 -0.53,-1.46l0 1.55c0.21,0 0.44,-0.04 0.58,-0.09 0,0 -0.03,0 -0.05,0l0 0zm-35.97 -42.44l0 10.69c6.39,-1.28 12,-2.67 16.42,-3.93 -0.88,-1.8 -1.84,-3.54 -2.82,-5.25 1.25,0.03 6.27,-0.41 12.17,1.25 0,-0.03 0,-0.03 0,-0.03 0.12,0.29 0.26,0.55 0.38,0.84 0.06,0 0.11,-0.06 0.17,-0.06 0.06,0 0.12,-0.03 0.18,-0.06 0.29,-0.14 0.61,-0.55 -0.33,-1.1 -0.26,-0.14 -0.52,-0.29 -0.81,-0.44l0 0c-3.22,-1.68 -8.24,-3.37 -14.73,-5.05 0.1,0.12 0.17,0.26 0.27,0.4 -3.06,0.91 -6.69,1.9 -10.9,2.74l0 0z"></path> <path class="fil9" d="M64.39 245.84c-0.12,0.19 -0.32,0.54 -0.3,0.72 0.03,0.21 0.15,0.33 0.46,0.43 -0.09,0 -0.14,-0.02 -0.2,-0.02 0.27,0.06 0.53,0.06 0.79,0.06l-0.75 -1.19 0 0zm41.51 7.83c-0.2,-0.2 -0.38,-0.37 -0.59,-0.58 -8.88,-1.33 -17.98,-3.04 -27.39,-5.19 -0.11,-0.13 -0.2,-0.24 -0.29,-0.36 -4.24,1.66 -7.67,3.52 -9.01,5.36 -0.17,0.17 -0.52,0.77 0.26,1.27 0,0 -0.02,0 -0.05,0 0.47,0.2 0.93,0.38 1.33,0.55 -0.28,-0.46 -0.54,-0.87 -0.84,-1.33 5.2,-2.42 10.23,-1.84 11.28,-1.69 2.23,2.99 4.68,5.79 7.29,8.37 10.16,2.55 22.48,4.7 35.99,6.01 -6.68,-2.99 -12.78,-7.26 -17.98,-12.41zm35.4 41.21c0.33,0.03 0.61,0.06 0.97,0.08l0 -10.16c-0.84,-0.07 -1.65,-0.15 -2.5,-0.23l1.53 10.31 0 0zm-52.71 -82.66l0 -5.26c-6.37,-1.11 -16.6,-3.08 -25.08,-5.72 0,-0.11 0,-0.23 0,-0.35 0,-0.17 0,-0.41 0,-0.64 -0.99,0.38 -1.88,0.76 -2.76,1.13 -0.78,0.33 -1.54,0.68 -2.23,1 -0.03,0.02 -0.06,0.06 -0.06,0.06 -0.06,0.02 -0.09,0.02 -0.15,0.05 -1.92,0.96 -3.46,1.97 -4.5,2.93 -0.17,0.12 -0.32,0.29 -0.44,0.41 -0.11,0.14 -0.2,0.26 -0.32,0.38l0 0c-0.03,0.06 -0.05,0.08 -0.09,0.11l-0.02 0.06 -0.03 0 0 0c0,0.03 0,0.03 0,0.03l-0.03 0c0,0 0,0.03 -0.03,0.06l0 0.06 -0.06 0 0 0.03c0,0.03 0,0.03 0,0.03l-0.03 0.02 -0.03 0 0 0.03c0,0 0,0 -0.02,0.03l0 0.03c0,0.03 0,0.03 0,0.03l-0.04 0 0 0.06 -0.04 0 0 0.03c0,0 0,0 0,0.03l0 0c-0.01,0.02 -0.01,0.06 -0.01,0.06l0 0 -0.03 0.02 0 0.06 -0.03 0.03c0,0.03 0,0.03 0,0.03l0 0c-0.03,0.03 -0.03,0.03 -0.03,0.05l0 0.07 -0.03 0 0 0.02c0,0.03 0,0.03 0,0.03l0 0.04c0,0 0,0.02 0,0.05l0 0.06c0,0.03 0,0.06 0,0.06l0 0.03c0,0.03 0,0.03 0,0.05l0.03 0.04 0 0.03c0,0 0,0 0,0.03l0.03 0 0.03 0.05 0 0.03 0.03 0c0,0.03 0,0.03 0.01,0.06l0 0c0,0.06 0,0.06 0,0.06 0.28,0.17 0.6,0.38 0.98,0.55 -0.03,-0.44 -0.06,-0.87 -0.09,-1.31 4.33,-2.12 8.34,-2.12 10.08,-1.94 0.12,2.35 0.32,4.67 0.64,6.99 6.41,1.81 14.93,3.66 24.58,5.18 -0.18,-1.66 -0.23,-3.34 -0.23,-5.06l0 0zm-28.68 -45.98c0.35,-0.85 0.67,-1.66 1.05,-2.48 1.16,0.29 5.57,1.66 8.66,5.67 -0.74,1.71 -1.37,3.43 -1.92,5.2 3.28,2.84 7.54,6.1 12.81,9.88 1.63,-0.38 3.25,-0.7 4.93,-1.02 1.02,-0.23 2.09,-0.41 3.15,-0.58l0 -11.36c-6.34,-2.82 -11.92,-5.05 -16.45,-6.56 0,0 0,0 -0.03,0 -0.06,-0.03 -0.15,-0.03 -0.21,-0.06 -0.05,-0.03 -0.14,-0.06 -0.22,-0.09 0,0 -0.04,0 -0.06,0 -4.11,-1.34 -7.3,-2.04 -9.47,-2.04 -0.26,0 -0.56,0 -0.82,0.04 -0.05,0 -0.09,0 -0.11,0.03l0 0c-0.09,0 -0.12,0 -0.15,0l-0.03 0c-0.03,0 -0.08,0.02 -0.14,0.02l0 0.03c-0.7,0.18 -1.28,0.64 -1.51,1.92 -0.04,-0.11 -0.04,-0.17 -0.04,-0.26 0,0.11 0,0.2 0.04,0.35 0.11,0.38 0.29,0.81 0.52,1.31l0 0zm82.36 -59.35c-0.36,0.05 -0.64,0.05 -0.97,0.05l-1.53 10.4c0.85,-0.14 1.66,-0.2 2.5,-0.26l0 -10.19 0 0zm-89.22 92.64l0 -1.55c-0.43,0.5 -0.87,1.08 -0.52,1.46 0.14,0.05 0.32,0.09 0.52,0.09l0 0zm13.48 -47.47c-0.14,-0.38 -0.26,-0.75 -0.29,-1.13 0.08,-0.82 0.61,-1.51 1.83,-1.86l-1.54 2.99z"></path> <path class="fil10" d="M147.21 271.95c-35.62,0 -59.52,-30.19 -59.52,-58.37l0 -80.29 119.07 0 0 80.29c0,28.18 -23.91,58.37 -59.55,58.37l0 0z"></path> <path class="fil3" d="M180.27 213.58c0,13.63 -12.53,31.85 -33.06,31.85 -20.54,0 -33.01,-18.22 -33.01,-31.85 0,-7.73 0,-53.79 0,-53.79l66.07 0c0,0 0,46.06 0,53.79zm-88.61 -76.31l0 76.31c0,26.24 22.31,54.36 55.55,54.36 33.27,0 55.57,-28.12 55.57,-54.36l0 -76.31 -111.12 0z"></path> <path class="fil7" d="M99.79 154.76c0.15,-4.24 3.4,-5.23 3.43,-5.23l0 0c0.04,0 3.26,0.99 3.41,5.23l-6.84 0 0 0zm10.67 0l-0.24 0 -0.52 -5.06c0.69,-0.09 1.19,-0.6 1.19,-1.25 0,-0.72 -0.59,-1.24 -1.27,-1.24l-0.15 0 -0.15 -2.3 0.56 0c0.12,0 0.23,-0.09 0.23,-0.23l0 -1.6 -0.76 0 0 0.81 -1.01 0 0 -0.81 -0.85 0 0 0.81 -1.01 0 0 -0.81 -0.73 0 0 1.57c0,0.12 0.12,0.26 0.23,0.26l0.56 0 -0.11 2.3 -1.43 0 -0.27 -4.89 0.42 0c0.14,0 0.22,-0.05 0.22,-0.23l0 -1.6 -0.75 0 0 0.76 -1.03 0 0 -0.76 -0.77 0 0 0.76 -1.05 0 0 -0.76 -0.73 0 0 1.6c0,0.09 0.09,0.21 0.24,0.23l0.37 0 -0.26 4.89 -1.42 0 -0.14 -2.3 0.55 0c0.11,0 0.26,-0.09 0.26,-0.23l0 -1.6 -0.73 0 0 0.81 -1.07 0 0 -0.81 -0.79 0 0 0.81 -1.07 0 0 -0.81 -0.73 0 0 1.57c0,0.12 0.12,0.26 0.29,0.26l0.5 0 -0.12 2.3 -0.12 0c-0.69,0 -1.28,0.52 -1.28,1.24 0,0.65 0.52,1.16 1.16,1.23l-0.48 5.08 -0.24 0c-0.66,0 -1.25,0.58 -1.25,1.25 0,0.67 0.59,1.22 1.25,1.22l14.5 0c0.7,0 1.27,-0.55 1.27,-1.22 0,-0.67 -0.57,-1.25 -1.27,-1.25l0 0z"></path> <path class="fil7" d="M143.98 154.76c0.18,-4.24 3.4,-5.23 3.43,-5.23l0 0c0.03,0 3.25,0.99 3.46,5.23l-6.89 0 0 0zm10.72 0l-0.32 0 -0.46 -5.06c0.69,-0.09 1.16,-0.6 1.16,-1.25 0,-0.72 -0.58,-1.24 -1.25,-1.24l-0.17 0 -0.15 -2.3 0.58 0c0.12,0 0.19,-0.09 0.19,-0.23l0 -1.6 -0.68 0 0 0.81 -1.11 0 0 -0.81 -0.75 0 0 0.81 -1.08 0 0 -0.81 -0.7 0 0 1.57c0,0.12 0.15,0.26 0.24,0.26l0.55 0 -0.14 2.3 -1.4 0 -0.26 -4.89 0.36 0c0.14,0 0.28,-0.05 0.28,-0.23l0 -1.6 -0.72 0 0 0.76 -1.08 0 0 -0.76 -0.75 0 0 0.76 -1.08 0 0 -0.76 -0.73 0 0 1.6c0,0.09 0.11,0.21 0.27,0.23l0.4 0 -0.27 4.89 -1.42 0 -0.17 -2.3 0.53 0c0.12,0 0.28,-0.09 0.28,-0.23l0 -1.6 -0.78 0 0 0.81 -1.04 0 0 -0.81 -0.73 0 0 0.81 -1.11 0 0 -0.81 -0.69 0 0 1.57c0,0.12 0.12,0.26 0.23,0.26l0.55 0 -0.15 2.3 -0.11 0c-0.7,0 -1.28,0.52 -1.28,1.24 0,0.65 0.52,1.16 1.16,1.23l-0.53 5.08 -0.16 0c-0.73,0 -1.25,0.58 -1.25,1.25 0,0.67 0.52,1.22 1.25,1.22l14.49 0c0.68,0 1.23,-0.55 1.23,-1.22 0,-0.67 -0.55,-1.25 -1.23,-1.25l0 0z"></path> <path class="fil7" d="M187.79 154.76c0.15,-4.24 3.4,-5.23 3.4,-5.23l0.06 0c0,0 3.23,0.99 3.42,5.23l-6.88 0 0 0zm10.7 0l-0.24 0 -0.52 -5.06c0.66,-0.09 1.16,-0.6 1.16,-1.25 0,-0.72 -0.59,-1.24 -1.27,-1.24l-0.15 0 -0.12 -2.3 0.52 0c0.12,0 0.24,-0.09 0.24,-0.23l0 -1.6 -0.73 0 0 0.81 -1.08 0 0 -0.81 -0.78 0 0 0.81 -1.04 0 0 -0.81 -0.74 0 0 1.57c0,0.12 0.12,0.26 0.27,0.26l0.52 0 -0.12 2.3 -1.36 0 -0.33 -4.89 0.42 0c0.14,0 0.26,-0.05 0.26,-0.23l0 -1.6 -0.73 0 0 0.76 -1.08 0 0 -0.76 -0.74 0 0 0.76 -1.09 0 0 -0.76 -0.73 0 0 1.6c0,0.09 0.13,0.21 0.27,0.23l0.37 0 -0.25 4.89 -1.46 0 -0.09 -2.3 0.53 0c0.09,0 0.27,-0.09 0.27,-0.23l0 -1.6 -0.8 0 0 0.81 -1.04 0 0 -0.81 -0.75 0 0 0.81 -1.08 0 0 -0.81 -0.72 0 0 1.57c0,0.12 0.12,0.26 0.23,0.26l0.55 0 -0.15 2.3 -0.11 0c-0.7,0 -1.26,0.52 -1.26,1.24 0,0.65 0.48,1.16 1.14,1.23l-0.46 5.08 -0.26 0c-0.67,0 -1.22,0.58 -1.22,1.25 0,0.67 0.55,1.22 1.22,1.22l14.53 0c0.71,0 1.24,-0.55 1.24,-1.22 0,-0.67 -0.53,-1.25 -1.24,-1.25l0 0z"></path> <path class="fil7" d="M99.79 200.34c0.15,-4.24 3.4,-5.23 3.43,-5.23l0 0c0.04,0 3.26,0.99 3.41,5.23l-6.84 0 0 0zm10.67 0l-0.24 0 -0.52 -5.08c0.69,-0.03 1.19,-0.56 1.19,-1.22 0,-0.73 -0.59,-1.28 -1.27,-1.28l-0.15 0 -0.15 -2.24 0.56 0c0.12,0 0.23,-0.08 0.23,-0.26l0 -1.6 -0.76 0 0 0.82 -1.01 0 0 -0.82 -0.85 0 0 0.82 -1.01 0 0 -0.82 -0.73 0 0 1.6c0,0.11 0.12,0.26 0.23,0.26l0.56 0 -0.11 2.24 -1.43 0 -0.27 -4.85 0.42 0c0.14,0 0.22,-0.09 0.22,-0.24l0 -1.6 -0.75 0 0 0.79 -1.03 0 0 -0.79 -0.77 0 0 0.79 -1.05 0 0 -0.79 -0.73 0 0 1.57c0,0.12 0.09,0.24 0.24,0.27l0.37 0 -0.26 4.85 -1.42 0 -0.14 -2.24 0.55 0c0.11,0 0.26,-0.08 0.26,-0.26l0 -1.6 -0.73 0 0 0.82 -1.07 0 0 -0.82 -0.79 0 0 0.82 -1.07 0 0 -0.82 -0.73 0 0 1.6c0,0.11 0.12,0.26 0.29,0.26l0.5 0 -0.12 2.24 -0.12 0c-0.69,0 -1.28,0.55 -1.28,1.28 0,0.64 0.52,1.13 1.16,1.22l-0.48 5.08 -0.24 0c-0.66,0 -1.25,0.53 -1.25,1.25 0,0.67 0.59,1.16 1.25,1.16l14.5 0c0.7,0 1.27,-0.49 1.27,-1.16 0,-0.72 -0.57,-1.25 -1.27,-1.25l0 0z"></path> <path class="fil7" d="M187.79 200.34c0.15,-4.24 3.4,-5.23 3.4,-5.23l0.06 0c0,0 3.23,0.99 3.42,5.23l-6.88 0 0 0zm10.7 0l-0.24 0 -0.52 -5.08c0.66,-0.03 1.16,-0.56 1.16,-1.22 0,-0.73 -0.59,-1.28 -1.27,-1.28l-0.15 0 -0.12 -2.24 0.52 0c0.12,0 0.24,-0.08 0.24,-0.26l0 -1.6 -0.73 0 0 0.82 -1.08 0 0 -0.82 -0.78 0 0 0.82 -1.04 0 0 -0.82 -0.74 0 0 1.6c0,0.11 0.12,0.26 0.27,0.26l0.52 0 -0.12 2.24 -1.36 0 -0.33 -4.85 0.42 0c0.14,0 0.26,-0.09 0.26,-0.24l0 -1.6 -0.73 0 0 0.79 -1.08 0 0 -0.79 -0.74 0 0 0.79 -1.09 0 0 -0.79 -0.73 0 0 1.57c0,0.12 0.13,0.24 0.27,0.27l0.37 0 -0.25 4.85 -1.46 0 -0.09 -2.24 0.53 0c0.09,0 0.27,-0.08 0.27,-0.26l0 -1.6 -0.8 0 0 0.82 -1.04 0 0 -0.82 -0.75 0 0 0.82 -1.08 0 0 -0.82 -0.72 0 0 1.6c0,0.11 0.12,0.26 0.23,0.26l0.55 0 -0.15 2.24 -0.11 0c-0.7,0 -1.26,0.55 -1.26,1.28 0,0.64 0.48,1.13 1.14,1.22l-0.46 5.08 -0.26 0c-0.67,0 -1.22,0.53 -1.22,1.25 0,0.67 0.55,1.16 1.22,1.16l14.53 0c0.71,0 1.24,-0.49 1.24,-1.16 0,-0.72 -0.53,-1.25 -1.24,-1.25l0 0z"></path> <path class="fil7" d="M115.78 247.7c-2.88,-3.14 -1.26,-6.11 -1.26,-6.13l0 0c0.07,0 3.03,-1.69 6.13,1.24l-4.87 4.89zm7.54 -7.62l-0.16 0.21 -3.9 -3.23c0.4,-0.52 0.4,-1.22 -0.09,-1.71 -0.49,-0.47 -1.34,-0.47 -1.8,0l-0.12 0.14 -1.65 -1.48 0.08 -0.08 0.3 -0.32c0.09,-0.07 0.12,-0.21 0,-0.35l-1.11 -1.14 -0.52 0.5 0.55 0.64 -0.75 0.75 -0.55 -0.61 -0.59 0.53 0.59 0.58 -0.79 0.75 -0.49 -0.56 -0.55 0.53 1.07 1.1c0.11,0.09 0.29,0.09 0.4,0l0.26 -0.26 0.13 -0.15 1.47 1.66 -0.99 0.96 -3.65 -3.19 0.35 -0.24c0.08,-0.11 0.11,-0.29 0,-0.37l-1.11 -1.13 -0.57 0.52 0.57 0.57 -0.75 0.74 -0.56 -0.56 -0.55 0.56 0.55 0.51 -0.75 0.82 -0.56 -0.59 -0.53 0.53 1.12 1.11c0.09,0.08 0.26,0.08 0.38,0l0.29 -0.3 3.22 3.63 -0.98 1.02 -1.72 -1.45 0.09 -0.12 0.29 -0.26c0.08,-0.11 0.11,-0.26 0.03,-0.37l-1.16 -1.14 -0.5 0.52 0.55 0.53 -0.72 0.81 -0.55 -0.61 -0.58 0.58 0.58 0.56 -0.73 0.72 -0.58 -0.53 -0.52 0.5 1.1 1.13c0.08,0.06 0.27,0.09 0.38,0l0.28 -0.31 0.09 -0.07 1.48 1.63 -0.05 0.12c-0.52,0.52 -0.52,1.34 0,1.77 0.47,0.47 1.19,0.47 1.71,0.12l3.19 3.89 -0.17 0.2c-0.49,0.44 -0.49,1.25 0,1.75 0.53,0.49 1.31,0.49 1.8,0l10.26 -10.26c0.46,-0.49 0.46,-1.28 0,-1.74 -0.52,-0.55 -1.34,-0.55 -1.81,-0.06l0 0z"></path> <path class="fil7" d="M174.51 242.81c3.14,-2.93 6.07,-1.24 6.11,-1.24l0 0c0.02,0.02 1.59,2.99 -1.25,6.13l-4.86 -4.89zm-4.47 -2.67c-0.46,0.46 -0.46,1.25 0,1.74l10.26 10.26c0.46,0.49 1.27,0.49 1.8,0 0.46,-0.5 0.46,-1.31 0,-1.75l-0.21 -0.2 3.26 -3.89c0.49,0.35 1.25,0.35 1.68,-0.12 0.53,-0.43 0.53,-1.25 0,-1.77l-0.06 -0.12 1.46 -1.63 0.13 0.07 0.27 0.31c0.12,0.09 0.3,0.06 0.37,0l1.12 -1.13 -0.53 -0.5 -0.56 0.53 -0.75 -0.72 0.53 -0.56 -0.53 -0.58 -0.55 0.61 -0.75 -0.81 0.55 -0.53 -0.5 -0.52 -1.12 1.14c-0.12,0.11 -0.1,0.26 0,0.37l0.28 0.26 0.1 0.12 -1.72 1.45 -0.96 -1.02 3.22 -3.63 0.29 0.3c0.12,0.08 0.3,0.08 0.35,0l1.11 -1.11 -0.5 -0.53 -0.55 0.59 -0.76 -0.82 0.56 -0.51 -0.56 -0.56 -0.52 0.56 -0.81 -0.74 0.58 -0.57 -0.52 -0.52 -1.14 1.13c-0.11,0.08 -0.06,0.26 0.04,0.37l0.28 0.24 -3.66 3.19 -0.96 -0.96 1.49 -1.66 0.08 0.15 0.26 0.26c0.12,0.09 0.32,0.09 0.35,0l1.16 -1.1 -0.55 -0.53 -0.56 0.56 -0.72 -0.75 0.56 -0.58 -0.56 -0.53 -0.55 0.61 -0.75 -0.75 0.58 -0.64 -0.55 -0.5 -1.11 1.14c-0.13,0.14 -0.09,0.28 0,0.35l0.26 0.32 0.12 0.08 -1.63 1.48 -0.14 -0.14c-0.5,-0.47 -1.31,-0.47 -1.81,0 -0.49,0.49 -0.49,1.19 -0.08,1.71l-3.92 3.23 -0.15 -0.21c-0.49,-0.49 -1.28,-0.49 -1.8,0.06l0 0z"></path> <path class="fil11" d="M151.28 228.73c-0.79,0 -1.4,0.69 -1.4,1.42 0,0.87 0.61,1.5 1.4,1.5 0.78,0 1.45,-0.63 1.45,-1.5 0,-0.73 -0.67,-1.42 -1.45,-1.42z"></path> <path class="fil11" d="M143.35 228.78c-0.74,0 -1.44,0.64 -1.44,1.43 0,0.81 0.7,1.44 1.44,1.44 0.86,0 1.48,-0.63 1.48,-1.44 0,-0.79 -0.62,-1.43 -1.48,-1.43z"></path> <path class="fil12" d="M147.21 186.19c3.17,0 7.35,-2.61 7.35,-7.81 0,-5.98 0,-10.46 0,-10.46l-14.68 0c0,0 0,4.48 0,10.46 0,5.2 4.19,7.81 7.33,7.81z"></path> <path class="fil11" d="M145.14 172.05c0,-0.93 -0.78,-1.69 -1.68,-1.69 -0.91,0 -1.66,0.76 -1.66,1.69 0,0.92 0.75,1.68 1.66,1.68 0.9,0 1.68,-0.76 1.68,-1.68z"></path> <path class="fil11" d="M148.89 175.82c0,-0.93 -0.76,-1.69 -1.68,-1.69 -0.9,0 -1.63,0.76 -1.63,1.69 0,0.9 0.73,1.65 1.63,1.65 0.92,0 1.68,-0.75 1.68,-1.65z"></path> <path class="fil11" d="M152.64 179.54c0,-0.93 -0.75,-1.66 -1.65,-1.66 -0.93,0 -1.69,0.73 -1.69,1.66 0,0.93 0.76,1.68 1.69,1.68 0.9,0 1.65,-0.75 1.65,-1.68z"></path> <path class="fil11" d="M150.99 173.73c0.9,0 1.65,-0.76 1.65,-1.68 0,-0.93 -0.75,-1.69 -1.65,-1.69 -0.93,0 -1.69,0.76 -1.69,1.69 0,0.92 0.76,1.68 1.69,1.68z"></path> <path class="fil11" d="M143.46 181.22c0.9,0 1.68,-0.75 1.68,-1.68 0,-0.93 -0.78,-1.66 -1.68,-1.66 -0.91,0 -1.66,0.73 -1.66,1.66 0,0.93 0.75,1.68 1.66,1.68z"></path> <path class="fil12" d="M147.21 211.49c3.17,0 7.35,-2.61 7.35,-7.81 0,-5.95 0,-10.49 0,-10.49l-14.68 0c0,0 0,4.54 0,10.49 0,5.2 4.19,7.81 7.33,7.81z"></path> <path class="fil11" d="M145.14 197.35c0,-0.93 -0.78,-1.69 -1.68,-1.69 -0.91,0 -1.66,0.76 -1.66,1.69 0,0.93 0.75,1.65 1.66,1.65 0.9,0 1.68,-0.72 1.68,-1.65z"></path> <path class="fil11" d="M148.89 201.09c0,-0.93 -0.76,-1.65 -1.68,-1.65 -0.9,0 -1.63,0.72 -1.63,1.65 0,0.93 0.73,1.63 1.63,1.63 0.92,0 1.68,-0.7 1.68,-1.63z"></path> <path class="fil11" d="M152.64 204.87c0,-0.93 -0.75,-1.68 -1.65,-1.68 -0.93,0 -1.69,0.75 -1.69,1.68 0,0.91 0.76,1.66 1.69,1.66 0.9,0 1.65,-0.75 1.65,-1.66z"></path> <path class="fil11" d="M150.99 199c0.9,0 1.65,-0.72 1.65,-1.65 0,-0.93 -0.75,-1.69 -1.65,-1.69 -0.93,0 -1.69,0.76 -1.69,1.69 0,0.93 0.76,1.65 1.69,1.65z"></path> <path class="fil11" d="M143.46 206.53c0.9,0 1.68,-0.75 1.68,-1.66 0,-0.93 -0.78,-1.68 -1.68,-1.68 -0.91,0 -1.66,0.75 -1.66,1.68 0,0.91 0.75,1.66 1.66,1.66z"></path> <path class="fil12" d="M126.99 211.49c3.16,0 7.32,-2.61 7.32,-7.81 0,-5.95 0,-10.49 0,-10.49l-14.67 0c0,0 0,4.54 0,10.49 0,5.2 4.15,7.81 7.35,7.81z"></path> <path class="fil11" d="M124.87 197.35c0,-0.93 -0.73,-1.69 -1.66,-1.69 -0.9,0 -1.67,0.76 -1.67,1.69 0,0.93 0.77,1.65 1.67,1.65 0.93,0 1.66,-0.72 1.66,-1.65z"></path> <path class="fil11" d="M128.64 201.09c0,-0.93 -0.75,-1.65 -1.65,-1.65 -0.93,0 -1.68,0.72 -1.68,1.65 0,0.93 0.75,1.63 1.68,1.63 0.9,0 1.65,-0.7 1.65,-1.63z"></path> <path class="fil11" d="M132.39 204.87c0,-0.93 -0.72,-1.68 -1.67,-1.68 -0.91,0 -1.67,0.75 -1.67,1.68 0,0.91 0.76,1.66 1.67,1.66 0.95,0 1.67,-0.75 1.67,-1.66z"></path> <path class="fil11" d="M130.72 199c0.95,0 1.67,-0.72 1.67,-1.65 0,-0.93 -0.72,-1.69 -1.67,-1.69 -0.91,0 -1.67,0.76 -1.67,1.69 0,0.93 0.76,1.65 1.67,1.65z"></path> <path class="fil11" d="M123.21 206.53c0.93,0 1.66,-0.75 1.66,-1.66 0,-0.93 -0.73,-1.68 -1.66,-1.68 -0.9,0 -1.67,0.75 -1.67,1.68 0,0.91 0.77,1.66 1.67,1.66z"></path> <path class="fil12" d="M167.46 211.49c3.16,0 7.38,-2.61 7.38,-7.81 0,-5.95 0,-10.49 0,-10.49l-14.68 0c0,0 0,4.54 0,10.49 0,5.2 4.13,7.81 7.3,7.81z"></path> <path class="fil11" d="M165.36 197.35c0,-0.93 -0.72,-1.69 -1.66,-1.69 -0.89,0 -1.64,0.76 -1.64,1.69 0,0.93 0.75,1.65 1.64,1.65 0.94,0 1.66,-0.72 1.66,-1.65z"></path> <path class="fil11" d="M169.14 201.09c0,-0.93 -0.75,-1.65 -1.68,-1.65 -0.91,0 -1.66,0.72 -1.66,1.65 0,0.93 0.75,1.63 1.66,1.63 0.93,0 1.68,-0.7 1.68,-1.63z"></path> <path class="fil11" d="M172.88 204.87c0,-0.93 -0.72,-1.68 -1.65,-1.68 -0.93,0 -1.68,0.75 -1.68,1.68 0,0.91 0.75,1.66 1.68,1.66 0.93,0 1.65,-0.75 1.65,-1.66z"></path> <path class="fil11" d="M171.23 199c0.93,0 1.65,-0.72 1.65,-1.65 0,-0.93 -0.72,-1.69 -1.65,-1.69 -0.93,0 -1.68,0.76 -1.68,1.69 0,0.93 0.75,1.65 1.68,1.65z"></path> <path class="fil11" d="M163.7 206.53c0.94,0 1.66,-0.75 1.66,-1.66 0,-0.93 -0.72,-1.68 -1.66,-1.68 -0.89,0 -1.64,0.75 -1.64,1.68 0,0.91 0.75,1.66 1.64,1.66z"></path> <path class="fil12" d="M147.21 236.8c3.17,0 7.35,-2.64 7.35,-7.82 0,-6.01 0,-10.45 0,-10.45l-14.68 0c0,0 0,4.44 0,10.45 0,5.18 4.19,7.82 7.33,7.82z"></path> <path class="fil11" d="M145.14 222.65c0,-0.9 -0.78,-1.65 -1.68,-1.65 -0.91,0 -1.66,0.75 -1.66,1.65 0,0.9 0.75,1.66 1.66,1.66 0.9,0 1.68,-0.76 1.68,-1.66z"></path> <path class="fil11" d="M148.89 226.43c0,-0.93 -0.76,-1.68 -1.68,-1.68 -0.9,0 -1.63,0.75 -1.63,1.68 0,0.9 0.73,1.65 1.63,1.65 0.92,0 1.68,-0.75 1.68,-1.65z"></path> <path class="fil11" d="M152.64 230.15c0,-0.93 -0.75,-1.66 -1.65,-1.66 -0.93,0 -1.69,0.73 -1.69,1.66 0,0.93 0.76,1.68 1.69,1.68 0.9,0 1.65,-0.75 1.65,-1.68z"></path> <path class="fil11" d="M150.99 224.31c0.9,0 1.65,-0.76 1.65,-1.66 0,-0.9 -0.75,-1.65 -1.65,-1.65 -0.93,0 -1.69,0.75 -1.69,1.65 0,0.9 0.76,1.66 1.69,1.66z"></path> <path class="fil11" d="M143.46 231.83c0.9,0 1.68,-0.75 1.68,-1.68 0,-0.93 -0.78,-1.66 -1.68,-1.66 -0.91,0 -1.66,0.73 -1.66,1.66 0,0.93 0.75,1.68 1.66,1.68z"></path> </g> </svg> 